<?xml version="1.0" encoding="utf-8"?>
<!-- Generator: Adobe Illustrator 24.0.0, SVG Export Plug-In . SVG Version: 6.00 Build 0)  -->
<svg version="1.1" id="Calque_1" xmlns="http://www.w3.org/2000/svg" xmlns:xlink="http://www.w3.org/1999/xlink" x="0px" y="0px"
	 viewBox="0 0 563.42 127.85" style="enable-background:new 0 0 563.42 127.85;" xml:space="preserve">
<style type="text/css">
	.st0{fill:#E94E1B;}
	.st1{clip-path:url(#SVGID_2_);}
	.st2{fill:#575756;}
	.st3{fill:url(#SVGID_3_);}
	.st4{opacity:0.1;}
	.st5{fill:#FFFFFF;}
	.st6{fill:#E94E1B;stroke:#E94E1B;stroke-miterlimit:10;}
	.st7{fill:#EB6209;}
	.st8{clip-path:url(#SVGID_4_);}
	.st9{clip-path:url(#SVGID_5_);}
	.st10{fill:#020203;}
	.st11{fill:none;stroke:#ED7004;stroke-width:0.5;stroke-miterlimit:10;}
</style>
<g>
	<g>
		<g>
			<path class="st0" d="M101.49,51.26H42.21c-0.23,0-0.42,0.08-0.58,0.24c-0.16,0.16-0.24,0.36-0.24,0.58V67
				c0,0.23,0.08,0.42,0.24,0.58c0.16,0.16,0.36,0.24,0.58,0.24h21.16v1.72H42.21c-0.71,0-1.31-0.25-1.8-0.74
				c-0.49-0.49-0.74-1.09-0.74-1.8V52.09c0-0.71,0.25-1.31,0.74-1.8c0.49-0.49,1.09-0.74,1.8-0.74h59.28V51.26z"/>
			<path class="st0" d="M105.72,67.87H67.87c-0.23,0-0.42-0.08-0.58-0.24c-0.16-0.16-0.24-0.36-0.24-0.58V55.42
				c0-0.23,0.08-0.42,0.24-0.58c0.16-0.16,0.36-0.24,0.58-0.24h12.66v-1.72H67.87c-0.67,0-1.25,0.22-1.73,0.67
				c-0.54,0.51-0.81,1.25-0.81,2v11.49c0,0.67,0.22,1.25,0.67,1.73c0.51,0.55,1.25,0.81,2,0.81h37.72V67.87z"/>
			<path class="st0" d="M84.46,53.03h10.16c0.71,0,1.31,0.25,1.8,0.74c0.49,0.49,0.74,1.09,0.74,1.8v7.92c0,0.71-0.25,1.31-0.74,1.8
				c-0.49,0.49-1.09,0.74-1.8,0.74H84.46c-0.71,0-1.31-0.25-1.8-0.74c-0.49-0.49-0.74-1.09-0.74-1.8v-7.92
				c0-0.71,0.25-1.31,0.74-1.8C83.15,53.27,83.75,53.03,84.46,53.03z M84.46,64.31h10.16c0.23,0,0.42-0.08,0.58-0.24
				c0.16-0.16,0.24-0.36,0.24-0.58v-7.92c0-0.23-0.08-0.42-0.24-0.58c-0.16-0.16-0.36-0.24-0.58-0.24H84.46
				c-0.23,0-0.42,0.08-0.58,0.24c-0.16,0.16-0.24,0.36-0.24,0.58v7.92c0,0.23,0.08,0.42,0.24,0.58
				C84.04,64.23,84.23,64.31,84.46,64.31z"/>
			<path class="st0" d="M50.66,53.03h10.16c0.71,0,1.31,0.25,1.8,0.74c0.49,0.49,0.74,1.09,0.74,1.8v7.92c0,0.71-0.25,1.31-0.74,1.8
				c-0.49,0.49-1.09,0.74-1.8,0.74H50.66c-0.71,0-1.31-0.25-1.8-0.74c-0.49-0.49-0.74-1.09-0.74-1.8v-7.92
				c0-0.71,0.25-1.31,0.74-1.8C49.36,53.27,49.96,53.03,50.66,53.03z M50.66,64.31h10.16c0.23,0,0.42-0.08,0.58-0.24
				c0.16-0.16,0.24-0.36,0.24-0.58v-7.92c0-0.23-0.08-0.42-0.24-0.58c-0.16-0.16-0.36-0.24-0.58-0.24H50.66
				c-0.23,0-0.42,0.08-0.58,0.24c-0.16,0.16-0.24,0.36-0.24,0.58v7.92c0,0.23,0.08,0.42,0.24,0.58
				C50.24,64.23,50.44,64.31,50.66,64.31z"/>
		</g>
		<g>
			<path class="st0" d="M45.1,13.34l1.19-1.41h0.7v4.53h-0.52V12.5c-0.06,0.08-0.18,0.22-0.35,0.42c-0.17,0.21-0.29,0.34-0.35,0.41
				H45.1z"/>
			<path class="st0" d="M47.55,13.34l1.19-1.41h0.7v4.53h-0.52V12.5c-0.06,0.08-0.18,0.22-0.35,0.42c-0.17,0.21-0.29,0.34-0.35,0.41
				H47.55z"/>
			<path class="st0" d="M51.12,11.92h3.05c0.21,0,0.39,0.07,0.54,0.22c0.15,0.15,0.22,0.33,0.22,0.54v3c0,0.21-0.07,0.39-0.22,0.54
				c-0.15,0.15-0.33,0.22-0.54,0.22h-3.05c-0.21,0-0.39-0.07-0.54-0.22c-0.15-0.15-0.22-0.33-0.22-0.54v-3
				c0-0.21,0.07-0.4,0.22-0.54C50.73,11.99,50.91,11.92,51.12,11.92z M54.35,12.44h-3.23c-0.07,0-0.12,0.02-0.17,0.07
				c-0.05,0.05-0.07,0.11-0.07,0.17v2.62L54.35,12.44z M50.94,15.93h3.23c0.07,0,0.12-0.02,0.17-0.07c0.05-0.05,0.07-0.11,0.07-0.17
				v-2.62L50.94,15.93z"/>
			<path class="st0" d="M66.2,11.92h3.05c0.21,0,0.39,0.07,0.54,0.22c0.15,0.15,0.22,0.33,0.22,0.54v3c0,0.21-0.07,0.39-0.22,0.54
				c-0.15,0.15-0.33,0.22-0.54,0.22H66.2c-0.21,0-0.39-0.07-0.54-0.22c-0.15-0.15-0.22-0.33-0.22-0.54v-3c0-0.21,0.07-0.4,0.22-0.54
				C65.81,11.99,65.99,11.92,66.2,11.92z M69.42,12.44H66.2c-0.07,0-0.12,0.02-0.17,0.07c-0.05,0.05-0.07,0.11-0.07,0.17v2.62
				L69.42,12.44z M66.02,15.93h3.23c0.07,0,0.12-0.02,0.17-0.07s0.07-0.11,0.07-0.17v-2.62L66.02,15.93z"/>
			<path class="st0" d="M70.33,13.34l1.19-1.41h0.7v4.53H71.7V12.5c-0.06,0.08-0.18,0.22-0.35,0.42c-0.17,0.21-0.29,0.34-0.35,0.41
				H70.33z"/>
			<path class="st0" d="M73.9,11.92h3.05c0.21,0,0.39,0.07,0.54,0.22c0.15,0.15,0.22,0.33,0.22,0.54v3c0,0.21-0.07,0.39-0.22,0.54
				c-0.15,0.15-0.33,0.22-0.54,0.22H73.9c-0.21,0-0.39-0.07-0.54-0.22c-0.15-0.15-0.22-0.33-0.22-0.54v-3c0-0.21,0.07-0.4,0.22-0.54
				C73.51,11.99,73.69,11.92,73.9,11.92z M77.13,12.44H73.9c-0.07,0-0.12,0.02-0.17,0.07c-0.05,0.05-0.07,0.11-0.07,0.17v2.62
				L77.13,12.44z M73.72,15.93h3.23c0.07,0,0.12-0.02,0.17-0.07s0.07-0.11,0.07-0.17v-2.62L73.72,15.93z"/>
			<path class="st0" d="M78.03,13.34l1.19-1.41h0.7v4.53H79.4V12.5c-0.06,0.08-0.18,0.22-0.35,0.42c-0.17,0.21-0.29,0.34-0.35,0.41
				H78.03z"/>
			<path class="st0" d="M81.6,11.92h3.05c0.21,0,0.39,0.07,0.54,0.22c0.15,0.15,0.22,0.33,0.22,0.54v3c0,0.21-0.07,0.39-0.22,0.54
				c-0.15,0.15-0.33,0.22-0.54,0.22H81.6c-0.21,0-0.39-0.07-0.54-0.22c-0.15-0.15-0.22-0.33-0.22-0.54v-3c0-0.21,0.07-0.4,0.22-0.54
				C81.21,11.99,81.39,11.92,81.6,11.92z M84.83,12.44H81.6c-0.07,0-0.12,0.02-0.17,0.07c-0.05,0.05-0.07,0.11-0.07,0.17v2.62
				L84.83,12.44z M81.42,15.93h3.23c0.07,0,0.12-0.02,0.17-0.07s0.07-0.11,0.07-0.17v-2.62L81.42,15.93z"/>
			<path class="st0" d="M85.73,13.34l1.19-1.41h0.7v4.53H87.1V12.5c-0.06,0.08-0.18,0.22-0.35,0.42c-0.17,0.21-0.29,0.34-0.35,0.41
				H85.73z"/>
			<path class="st0" d="M89.3,11.92h3.05c0.21,0,0.39,0.07,0.54,0.22c0.15,0.15,0.22,0.33,0.22,0.54v3c0,0.21-0.07,0.39-0.22,0.54
				c-0.15,0.15-0.33,0.22-0.54,0.22H89.3c-0.21,0-0.39-0.07-0.54-0.22c-0.15-0.15-0.22-0.33-0.22-0.54v-3c0-0.21,0.07-0.4,0.22-0.54
				C88.91,11.99,89.09,11.92,89.3,11.92z M92.53,12.44H89.3c-0.07,0-0.12,0.02-0.17,0.07c-0.05,0.05-0.07,0.11-0.07,0.17v2.62
				L92.53,12.44z M89.12,15.93h3.23c0.07,0,0.12-0.02,0.17-0.07s0.07-0.11,0.07-0.17v-2.62L89.12,15.93z"/>
			<path class="st0" d="M93.43,13.34l1.19-1.41h0.7v4.53H94.8V12.5c-0.06,0.08-0.18,0.22-0.35,0.42c-0.17,0.21-0.29,0.34-0.35,0.41
				H93.43z"/>
			<path class="st0" d="M97,11.92h3.05c0.21,0,0.39,0.07,0.54,0.22c0.15,0.15,0.22,0.33,0.22,0.54v3c0,0.21-0.07,0.39-0.22,0.54
				c-0.15,0.15-0.33,0.22-0.54,0.22H97c-0.21,0-0.39-0.07-0.54-0.22c-0.15-0.15-0.22-0.33-0.22-0.54v-3c0-0.21,0.07-0.4,0.22-0.54
				C96.61,11.99,96.79,11.92,97,11.92z M100.23,12.44H97c-0.07,0-0.12,0.02-0.17,0.07c-0.05,0.05-0.07,0.11-0.07,0.17v2.62
				L100.23,12.44z M96.82,15.93h3.23c0.07,0,0.12-0.02,0.17-0.07c0.05-0.05,0.07-0.11,0.07-0.17v-2.62L96.82,15.93z"/>
			<path class="st0" d="M38.51,19.46h3.05c0.21,0,0.39,0.07,0.54,0.22c0.15,0.15,0.22,0.33,0.22,0.54v3c0,0.21-0.07,0.39-0.22,0.54
				c-0.15,0.15-0.33,0.22-0.54,0.22h-3.05c-0.21,0-0.39-0.07-0.54-0.22c-0.15-0.15-0.22-0.33-0.22-0.54v-3
				c0-0.21,0.07-0.4,0.22-0.54C38.11,19.54,38.29,19.46,38.51,19.46z M41.73,19.99h-3.23c-0.07,0-0.12,0.02-0.17,0.07
				c-0.05,0.05-0.07,0.11-0.07,0.17v2.62L41.73,19.99z M38.32,23.48h3.23c0.07,0,0.12-0.02,0.17-0.07c0.05-0.05,0.07-0.11,0.07-0.17
				v-2.62L38.32,23.48z"/>
			<path class="st0" d="M42.64,20.88l1.19-1.41h0.7v4.53h-0.52v-3.95c-0.06,0.08-0.18,0.22-0.35,0.42
				c-0.17,0.21-0.29,0.34-0.35,0.41H42.64z"/>
			<path class="st0" d="M46.21,19.46h3.05c0.21,0,0.39,0.07,0.54,0.22c0.15,0.15,0.22,0.33,0.22,0.54v3c0,0.21-0.07,0.39-0.22,0.54
				c-0.15,0.15-0.33,0.22-0.54,0.22h-3.05c-0.21,0-0.39-0.07-0.54-0.22c-0.15-0.15-0.22-0.33-0.22-0.54v-3
				c0-0.21,0.07-0.4,0.22-0.54C45.81,19.54,45.99,19.46,46.21,19.46z M49.43,19.99h-3.23c-0.07,0-0.12,0.02-0.17,0.07
				c-0.05,0.05-0.07,0.11-0.07,0.17v2.62L49.43,19.99z M46.03,23.48h3.23c0.07,0,0.12-0.02,0.17-0.07c0.05-0.05,0.07-0.11,0.07-0.17
				v-2.62L46.03,23.48z"/>
			<path class="st0" d="M50.34,20.88l1.19-1.41h0.7v4.53h-0.52v-3.95c-0.06,0.08-0.18,0.22-0.35,0.42
				c-0.17,0.21-0.29,0.34-0.35,0.41H50.34z"/>
			<path class="st0" d="M52.8,20.88l1.19-1.41h0.7v4.53h-0.52v-3.95c-0.06,0.08-0.18,0.22-0.35,0.42c-0.17,0.21-0.29,0.34-0.35,0.41
				H52.8z"/>
			<path class="st0" d="M56.37,19.46h3.05c0.21,0,0.39,0.07,0.54,0.22c0.15,0.15,0.22,0.33,0.22,0.54v3c0,0.21-0.07,0.39-0.22,0.54
				c-0.15,0.15-0.33,0.22-0.54,0.22h-3.05c-0.21,0-0.39-0.07-0.54-0.22c-0.15-0.15-0.22-0.33-0.22-0.54v-3
				c0-0.21,0.07-0.4,0.22-0.54C55.97,19.54,56.15,19.46,56.37,19.46z M59.59,19.99h-3.23c-0.07,0-0.12,0.02-0.17,0.07
				c-0.05,0.05-0.07,0.11-0.07,0.17v2.62L59.59,19.99z M56.19,23.48h3.23c0.07,0,0.12-0.02,0.17-0.07c0.05-0.05,0.07-0.11,0.07-0.17
				v-2.62L56.19,23.48z"/>
			<path class="st0" d="M60.5,20.88l1.19-1.41h0.7v4.53h-0.52v-3.95c-0.06,0.08-0.18,0.22-0.35,0.42c-0.17,0.21-0.29,0.34-0.35,0.41
				H60.5z"/>
			<path class="st0" d="M62.96,20.88l1.19-1.41h0.7v4.53h-0.52v-3.95c-0.06,0.08-0.18,0.22-0.35,0.42
				c-0.17,0.21-0.29,0.34-0.35,0.41H62.96z"/>
			<path class="st0" d="M65.41,20.88l1.19-1.41h0.7v4.53h-0.52v-3.95c-0.06,0.08-0.18,0.22-0.35,0.42
				c-0.17,0.21-0.29,0.34-0.35,0.41H65.41z"/>
			<path class="st0" d="M62.61,14.18l1.19-1.41h0.7v3.68h-0.52v-3.1c-0.06,0.08-0.18,0.22-0.35,0.42c-0.17,0.21-0.29,0.34-0.35,0.41
				H62.61z"/>
			<path class="st0" d="M60.16,14.18l1.19-1.41h0.7v3.68h-0.52v-3.1c-0.06,0.08-0.18,0.22-0.35,0.42c-0.17,0.21-0.29,0.34-0.35,0.41
				H60.16z"/>
			<path class="st0" d="M57.63,14.18l1.19-1.41h0.7v3.68H59v-3.1c-0.06,0.08-0.18,0.22-0.35,0.42c-0.17,0.21-0.29,0.34-0.35,0.41
				H57.63z"/>
			<path class="st0" d="M55.11,14.18l1.19-1.41h0.7v3.68h-0.52v-3.1c-0.06,0.08-0.18,0.22-0.35,0.42c-0.17,0.21-0.29,0.34-0.35,0.41
				H55.11z"/>
			<path class="st0" d="M67.87,20.88l1.19-1.41h0.7v4.53h-0.52v-3.95c-0.06,0.08-0.18,0.22-0.35,0.42
				c-0.17,0.21-0.29,0.34-0.35,0.41H67.87z"/>
			<path class="st0" d="M71.44,19.46h3.05c0.21,0,0.39,0.07,0.54,0.22c0.15,0.15,0.22,0.33,0.22,0.54v3c0,0.21-0.07,0.39-0.22,0.54
				c-0.15,0.15-0.33,0.22-0.54,0.22h-3.05c-0.21,0-0.39-0.07-0.54-0.22c-0.15-0.15-0.22-0.33-0.22-0.54v-3
				c0-0.21,0.07-0.4,0.22-0.54C71.05,19.54,71.23,19.46,71.44,19.46z M74.67,19.99h-3.23c-0.07,0-0.12,0.02-0.17,0.07
				c-0.05,0.05-0.07,0.11-0.07,0.17v2.62L74.67,19.99z M71.26,23.48h3.23c0.07,0,0.12-0.02,0.17-0.07c0.05-0.05,0.07-0.11,0.07-0.17
				v-2.62L71.26,23.48z"/>
			<path class="st0" d="M75.57,20.88l1.19-1.41h0.7v4.53h-0.52v-3.95c-0.06,0.08-0.18,0.22-0.35,0.42
				c-0.17,0.21-0.29,0.34-0.35,0.41H75.57z"/>
			<path class="st0" d="M79.14,19.46h3.05c0.21,0,0.39,0.07,0.54,0.22c0.15,0.15,0.22,0.33,0.22,0.54v3c0,0.21-0.07,0.39-0.22,0.54
				c-0.15,0.15-0.33,0.22-0.54,0.22h-3.05c-0.21,0-0.39-0.07-0.54-0.22c-0.15-0.15-0.22-0.33-0.22-0.54v-3
				c0-0.21,0.07-0.4,0.22-0.54C78.75,19.54,78.93,19.46,79.14,19.46z M82.37,19.99h-3.23c-0.07,0-0.12,0.02-0.17,0.07
				c-0.05,0.05-0.07,0.11-0.07,0.17v2.62L82.37,19.99z M78.96,23.48h3.23c0.07,0,0.12-0.02,0.17-0.07c0.05-0.05,0.07-0.11,0.07-0.17
				v-2.62L78.96,23.48z"/>
			<path class="st0" d="M83.27,20.88l1.19-1.41h0.7v4.53h-0.52v-3.95c-0.06,0.08-0.18,0.22-0.35,0.42
				c-0.17,0.21-0.29,0.34-0.35,0.41H83.27z"/>
			<path class="st0" d="M86.85,19.46h3.05c0.21,0,0.39,0.07,0.54,0.22c0.15,0.15,0.22,0.33,0.22,0.54v3c0,0.21-0.07,0.39-0.22,0.54
				c-0.15,0.15-0.33,0.22-0.54,0.22h-3.05c-0.21,0-0.39-0.07-0.54-0.22c-0.15-0.15-0.22-0.33-0.22-0.54v-3
				c0-0.21,0.07-0.4,0.22-0.54C86.45,19.54,86.63,19.46,86.85,19.46z M90.07,19.99h-3.23c-0.07,0-0.12,0.02-0.17,0.07
				c-0.05,0.05-0.07,0.11-0.07,0.17v2.62L90.07,19.99z M86.66,23.48h3.23c0.07,0,0.12-0.02,0.17-0.07c0.05-0.05,0.07-0.11,0.07-0.17
				v-2.62L86.66,23.48z"/>
			<path class="st0" d="M90.98,20.88l1.19-1.41h0.7v4.53h-0.52v-3.95c-0.06,0.08-0.18,0.22-0.35,0.42
				c-0.17,0.21-0.29,0.34-0.35,0.41H90.98z"/>
			<path class="st0" d="M94.55,19.46h3.05c0.21,0,0.39,0.07,0.54,0.22c0.15,0.15,0.22,0.33,0.22,0.54v3c0,0.21-0.07,0.39-0.22,0.54
				c-0.15,0.15-0.33,0.22-0.54,0.22h-3.05c-0.21,0-0.39-0.07-0.54-0.22c-0.15-0.15-0.22-0.33-0.22-0.54v-3
				c0-0.21,0.07-0.4,0.22-0.54C94.15,19.54,94.33,19.46,94.55,19.46z M97.77,19.99h-3.23c-0.07,0-0.12,0.02-0.17,0.07
				c-0.05,0.05-0.07,0.11-0.07,0.17v2.62L97.77,19.99z M94.36,23.48h3.23c0.07,0,0.12-0.02,0.17-0.07c0.05-0.05,0.07-0.11,0.07-0.17
				v-2.62L94.36,23.48z"/>
			<path class="st0" d="M98.68,20.88l1.19-1.41h0.7v4.53h-0.52v-3.95c-0.06,0.08-0.18,0.22-0.35,0.42
				c-0.17,0.21-0.29,0.34-0.35,0.41H98.68z"/>
			<path class="st0" d="M102.25,19.46h3.05c0.21,0,0.39,0.07,0.54,0.22c0.15,0.15,0.22,0.33,0.22,0.54v3c0,0.21-0.07,0.39-0.22,0.54
				c-0.15,0.15-0.33,0.22-0.54,0.22h-3.05c-0.21,0-0.39-0.07-0.54-0.22c-0.15-0.15-0.22-0.33-0.22-0.54v-3
				c0-0.21,0.07-0.4,0.22-0.54C101.85,19.54,102.03,19.46,102.25,19.46z M105.47,19.99h-3.23c-0.07,0-0.12,0.02-0.17,0.07
				c-0.05,0.05-0.07,0.11-0.07,0.17v2.62L105.47,19.99z M102.07,23.48h3.23c0.07,0,0.12-0.02,0.17-0.07
				c0.05-0.05,0.07-0.11,0.07-0.17v-2.62L102.07,23.48z"/>
			<path class="st0" d="M106.38,20.88l1.19-1.41h0.7v4.53h-0.52v-3.95c-0.06,0.08-0.18,0.22-0.35,0.42
				c-0.17,0.21-0.29,0.34-0.35,0.41H106.38z"/>
			<path class="st0" d="M108.84,20.88l1.19-1.41h0.7v4.53h-0.52v-3.95c-0.06,0.08-0.18,0.22-0.35,0.42
				c-0.17,0.21-0.29,0.34-0.35,0.41H108.84z"/>
			<path class="st0" d="M111.29,20.88l1.19-1.41h0.7v4.53h-0.52v-3.95c-0.06,0.08-0.18,0.22-0.35,0.42
				c-0.17,0.21-0.29,0.34-0.35,0.41H111.29z"/>
			<path class="st0" d="M37.39,28.42l1.19-1.41h0.7v4.53h-0.52v-3.95c-0.06,0.08-0.18,0.22-0.35,0.42
				c-0.17,0.21-0.29,0.34-0.35,0.41H37.39z"/>
			<path class="st0" d="M40.97,27.01h3.05c0.21,0,0.39,0.07,0.54,0.22c0.15,0.15,0.22,0.33,0.22,0.54v3c0,0.21-0.07,0.39-0.22,0.54
				c-0.15,0.15-0.33,0.22-0.54,0.22h-3.05c-0.21,0-0.39-0.07-0.54-0.22c-0.15-0.15-0.22-0.33-0.22-0.54v-3
				c0-0.21,0.07-0.4,0.22-0.54C40.57,27.08,40.75,27.01,40.97,27.01z M44.19,27.53h-3.23c-0.07,0-0.12,0.02-0.17,0.07
				c-0.05,0.05-0.07,0.11-0.07,0.17v2.62L44.19,27.53z M40.78,31.02h3.23c0.07,0,0.12-0.02,0.17-0.07c0.05-0.05,0.07-0.11,0.07-0.17
				v-2.62L40.78,31.02z"/>
			<path class="st0" d="M45.1,28.42l1.19-1.41h0.7v4.53h-0.52v-3.95c-0.06,0.08-0.18,0.22-0.35,0.42c-0.17,0.21-0.29,0.34-0.35,0.41
				H45.1z"/>
			<path class="st0" d="M48.67,27.01h3.05c0.21,0,0.39,0.07,0.54,0.22c0.15,0.15,0.22,0.33,0.22,0.54v3c0,0.21-0.07,0.39-0.22,0.54
				c-0.15,0.15-0.33,0.22-0.54,0.22h-3.05c-0.21,0-0.39-0.07-0.54-0.22c-0.15-0.15-0.22-0.33-0.22-0.54v-3
				c0-0.21,0.07-0.4,0.22-0.54C48.27,27.08,48.45,27.01,48.67,27.01z M51.89,27.53h-3.23c-0.07,0-0.12,0.02-0.17,0.07
				c-0.05,0.05-0.07,0.11-0.07,0.17v2.62L51.89,27.53z M48.48,31.02h3.23c0.07,0,0.12-0.02,0.17-0.07c0.05-0.05,0.07-0.11,0.07-0.17
				v-2.62L48.48,31.02z"/>
			<path class="st0" d="M52.8,28.42l1.19-1.41h0.7v4.53h-0.52v-3.95c-0.06,0.08-0.18,0.22-0.35,0.42c-0.17,0.21-0.29,0.34-0.35,0.41
				H52.8z"/>
			<path class="st0" d="M55.25,28.42l1.19-1.41h0.7v4.53h-0.52v-3.95c-0.06,0.08-0.18,0.22-0.35,0.42
				c-0.17,0.21-0.29,0.34-0.35,0.41H55.25z"/>
			<path class="st0" d="M58.83,27.01h3.05c0.21,0,0.39,0.07,0.54,0.22c0.15,0.15,0.22,0.33,0.22,0.54v3c0,0.21-0.07,0.39-0.22,0.54
				c-0.15,0.15-0.33,0.22-0.54,0.22h-3.05c-0.21,0-0.39-0.07-0.54-0.22c-0.15-0.15-0.22-0.33-0.22-0.54v-3
				c0-0.21,0.07-0.4,0.22-0.54C58.43,27.08,58.61,27.01,58.83,27.01z M62.05,27.53h-3.23c-0.07,0-0.12,0.02-0.17,0.07
				c-0.05,0.05-0.07,0.11-0.07,0.17v2.62L62.05,27.53z M58.64,31.02h3.23c0.07,0,0.12-0.02,0.17-0.07c0.05-0.05,0.07-0.11,0.07-0.17
				v-2.62L58.64,31.02z"/>
			<path class="st0" d="M62.96,28.42l1.19-1.41h0.7v4.53h-0.52v-3.95c-0.06,0.08-0.18,0.22-0.35,0.42
				c-0.17,0.21-0.29,0.34-0.35,0.41H62.96z"/>
			<path class="st0" d="M65.41,28.42l1.19-1.41h0.7v4.53h-0.52v-3.95c-0.06,0.08-0.18,0.22-0.35,0.42
				c-0.17,0.21-0.29,0.34-0.35,0.41H65.41z"/>
			<path class="st0" d="M67.87,28.42l1.19-1.41h0.7v4.53h-0.52v-3.95c-0.06,0.08-0.18,0.22-0.35,0.42
				c-0.17,0.21-0.29,0.34-0.35,0.41H67.87z"/>
			<path class="st0" d="M70.33,28.42l1.19-1.41h0.7v4.53H71.7v-3.95c-0.06,0.08-0.18,0.22-0.35,0.42c-0.17,0.21-0.29,0.34-0.35,0.41
				H70.33z"/>
			<path class="st0" d="M73.9,27.01h3.05c0.21,0,0.39,0.07,0.54,0.22c0.15,0.15,0.22,0.33,0.22,0.54v3c0,0.21-0.07,0.39-0.22,0.54
				c-0.15,0.15-0.33,0.22-0.54,0.22H73.9c-0.21,0-0.39-0.07-0.54-0.22c-0.15-0.15-0.22-0.33-0.22-0.54v-3c0-0.21,0.07-0.4,0.22-0.54
				C73.51,27.08,73.69,27.01,73.9,27.01z M77.13,27.53H73.9c-0.07,0-0.12,0.02-0.17,0.07c-0.05,0.05-0.07,0.11-0.07,0.17v2.62
				L77.13,27.53z M73.72,31.02h3.23c0.07,0,0.12-0.02,0.17-0.07c0.05-0.05,0.07-0.11,0.07-0.17v-2.62L73.72,31.02z"/>
			<path class="st0" d="M78.03,28.42l1.19-1.41h0.7v4.53H79.4v-3.95c-0.06,0.08-0.18,0.22-0.35,0.42c-0.17,0.21-0.29,0.34-0.35,0.41
				H78.03z"/>
			<path class="st0" d="M81.6,27.01h3.05c0.21,0,0.39,0.07,0.54,0.22c0.15,0.15,0.22,0.33,0.22,0.54v3c0,0.21-0.07,0.39-0.22,0.54
				c-0.15,0.15-0.33,0.22-0.54,0.22H81.6c-0.21,0-0.39-0.07-0.54-0.22c-0.15-0.15-0.22-0.33-0.22-0.54v-3c0-0.21,0.07-0.4,0.22-0.54
				C81.21,27.08,81.39,27.01,81.6,27.01z M84.83,27.53H81.6c-0.07,0-0.12,0.02-0.17,0.07c-0.05,0.05-0.07,0.11-0.07,0.17v2.62
				L84.83,27.53z M81.42,31.02h3.23c0.07,0,0.12-0.02,0.17-0.07c0.05-0.05,0.07-0.11,0.07-0.17v-2.62L81.42,31.02z"/>
			<path class="st0" d="M85.73,28.42l1.19-1.41h0.7v4.53H87.1v-3.95c-0.06,0.08-0.18,0.22-0.35,0.42c-0.17,0.21-0.29,0.34-0.35,0.41
				H85.73z"/>
			<path class="st0" d="M89.3,27.01h3.05c0.21,0,0.39,0.07,0.54,0.22c0.15,0.15,0.22,0.33,0.22,0.54v3c0,0.21-0.07,0.39-0.22,0.54
				c-0.15,0.15-0.33,0.22-0.54,0.22H89.3c-0.21,0-0.39-0.07-0.54-0.22c-0.15-0.15-0.22-0.33-0.22-0.54v-3c0-0.21,0.07-0.4,0.22-0.54
				C88.91,27.08,89.09,27.01,89.3,27.01z M92.53,27.53H89.3c-0.07,0-0.12,0.02-0.17,0.07c-0.05,0.05-0.07,0.11-0.07,0.17v2.62
				L92.53,27.53z M89.12,31.02h3.23c0.07,0,0.12-0.02,0.17-0.07c0.05-0.05,0.07-0.11,0.07-0.17v-2.62L89.12,31.02z"/>
			<path class="st0" d="M93.43,28.42l1.19-1.41h0.7v4.53H94.8v-3.95c-0.06,0.08-0.18,0.22-0.35,0.42c-0.17,0.21-0.29,0.34-0.35,0.41
				H93.43z"/>
			<path class="st0" d="M97,27.01h3.05c0.21,0,0.39,0.07,0.54,0.22c0.15,0.15,0.22,0.33,0.22,0.54v3c0,0.21-0.07,0.39-0.22,0.54
				c-0.15,0.15-0.33,0.22-0.54,0.22H97c-0.21,0-0.39-0.07-0.54-0.22c-0.15-0.15-0.22-0.33-0.22-0.54v-3c0-0.21,0.07-0.4,0.22-0.54
				C96.61,27.08,96.79,27.01,97,27.01z M100.23,27.53H97c-0.07,0-0.12,0.02-0.17,0.07c-0.05,0.05-0.07,0.11-0.07,0.17v2.62
				L100.23,27.53z M96.82,31.02h3.23c0.07,0,0.12-0.02,0.17-0.07c0.05-0.05,0.07-0.11,0.07-0.17v-2.62L96.82,31.02z"/>
			<path class="st0" d="M101.13,28.42l1.19-1.41h0.7v4.53h-0.52v-3.95c-0.06,0.08-0.18,0.22-0.35,0.42
				c-0.17,0.21-0.29,0.34-0.35,0.41H101.13z"/>
			<path class="st0" d="M104.71,27.01h3.05c0.21,0,0.39,0.07,0.54,0.22c0.15,0.15,0.22,0.33,0.22,0.54v3c0,0.21-0.07,0.39-0.22,0.54
				c-0.15,0.15-0.33,0.22-0.54,0.22h-3.05c-0.21,0-0.39-0.07-0.54-0.22c-0.15-0.15-0.22-0.33-0.22-0.54v-3
				c0-0.21,0.07-0.4,0.22-0.54C104.31,27.08,104.49,27.01,104.71,27.01z M107.93,27.53h-3.23c-0.07,0-0.12,0.02-0.17,0.07
				c-0.05,0.05-0.07,0.11-0.07,0.17v2.62L107.93,27.53z M104.52,31.02h3.23c0.07,0,0.12-0.02,0.17-0.07
				c0.05-0.05,0.07-0.11,0.07-0.17v-2.62L104.52,31.02z"/>
			<path class="st0" d="M108.84,28.42l1.19-1.41h0.7v4.53h-0.52v-3.95c-0.06,0.08-0.18,0.22-0.35,0.42
				c-0.17,0.21-0.29,0.34-0.35,0.41H108.84z"/>
			<path class="st0" d="M111.29,28.42l1.19-1.41h0.7v4.53h-0.52v-3.95c-0.06,0.08-0.18,0.22-0.35,0.42
				c-0.17,0.21-0.29,0.34-0.35,0.41H111.29z"/>
			<path class="st0" d="M113.75,29.27l1.19-1.41h0.7v3.68h-0.52v-3.1c-0.06,0.08-0.18,0.22-0.35,0.42
				c-0.17,0.21-0.29,0.34-0.35,0.41H113.75z"/>
			<path class="st0" d="M35.72,34.55h3.05c0.21,0,0.39,0.07,0.54,0.22c0.15,0.15,0.22,0.33,0.22,0.54v3c0,0.21-0.07,0.39-0.22,0.54
				c-0.15,0.15-0.33,0.22-0.54,0.22h-3.05c-0.21,0-0.39-0.07-0.54-0.22c-0.15-0.15-0.22-0.33-0.22-0.54v-3
				c0-0.21,0.07-0.4,0.22-0.54C35.33,34.63,35.51,34.55,35.72,34.55z M38.95,35.07h-3.23c-0.07,0-0.12,0.02-0.17,0.07
				c-0.05,0.05-0.07,0.11-0.07,0.17v2.62L38.95,35.07z M35.54,38.56h3.23c0.07,0,0.12-0.02,0.17-0.07s0.07-0.11,0.07-0.17V35.7
				L35.54,38.56z"/>
			<path class="st0" d="M39.85,35.97l1.19-1.41h0.7v4.53h-0.52v-3.95c-0.06,0.08-0.18,0.22-0.35,0.42
				c-0.17,0.21-0.29,0.34-0.35,0.41H39.85z"/>
			<path class="st0" d="M43.42,34.55h3.05c0.21,0,0.39,0.07,0.54,0.22c0.15,0.15,0.22,0.33,0.22,0.54v3c0,0.21-0.07,0.39-0.22,0.54
				c-0.15,0.15-0.33,0.22-0.54,0.22h-3.05c-0.21,0-0.39-0.07-0.54-0.22c-0.15-0.15-0.22-0.33-0.22-0.54v-3
				c0-0.21,0.07-0.4,0.22-0.54C43.03,34.63,43.21,34.55,43.42,34.55z M46.65,35.07h-3.23c-0.07,0-0.12,0.02-0.17,0.07
				c-0.05,0.05-0.07,0.11-0.07,0.17v2.62L46.65,35.07z M43.24,38.56h3.23c0.07,0,0.12-0.02,0.17-0.07c0.05-0.05,0.07-0.11,0.07-0.17
				V35.7L43.24,38.56z"/>
			<path class="st0" d="M47.55,35.97l1.19-1.41h0.7v4.53h-0.52v-3.95c-0.06,0.08-0.18,0.22-0.35,0.42
				c-0.17,0.21-0.29,0.34-0.35,0.41H47.55z"/>
			<path class="st0" d="M51.12,34.55h3.05c0.21,0,0.39,0.07,0.54,0.22c0.15,0.15,0.22,0.33,0.22,0.54v3c0,0.21-0.07,0.39-0.22,0.54
				c-0.15,0.15-0.33,0.22-0.54,0.22h-3.05c-0.21,0-0.39-0.07-0.54-0.22c-0.15-0.15-0.22-0.33-0.22-0.54v-3
				c0-0.21,0.07-0.4,0.22-0.54C50.73,34.63,50.91,34.55,51.12,34.55z M54.35,35.07h-3.23c-0.07,0-0.12,0.02-0.17,0.07
				c-0.05,0.05-0.07,0.11-0.07,0.17v2.62L54.35,35.07z M50.94,38.56h3.23c0.07,0,0.12-0.02,0.17-0.07c0.05-0.05,0.07-0.11,0.07-0.17
				V35.7L50.94,38.56z"/>
			<path class="st0" d="M55.25,35.97l1.19-1.41h0.7v4.53h-0.52v-3.95c-0.06,0.08-0.18,0.22-0.35,0.42
				c-0.17,0.21-0.29,0.34-0.35,0.41H55.25z"/>
			<path class="st0" d="M57.71,35.97l1.19-1.41h0.7v4.53h-0.52v-3.95c-0.06,0.08-0.18,0.22-0.35,0.42
				c-0.17,0.21-0.29,0.34-0.35,0.41H57.71z"/>
			<path class="st0" d="M61.28,34.55h3.05c0.21,0,0.39,0.07,0.54,0.22c0.15,0.15,0.22,0.33,0.22,0.54v3c0,0.21-0.07,0.39-0.22,0.54
				c-0.15,0.15-0.33,0.22-0.54,0.22h-3.05c-0.21,0-0.39-0.07-0.54-0.22c-0.15-0.15-0.22-0.33-0.22-0.54v-3
				c0-0.21,0.07-0.4,0.22-0.54C60.89,34.63,61.07,34.55,61.28,34.55z M64.51,35.07h-3.23c-0.07,0-0.12,0.02-0.17,0.07
				c-0.05,0.05-0.07,0.11-0.07,0.17v2.62L64.51,35.07z M61.1,38.56h3.23c0.07,0,0.12-0.02,0.17-0.07c0.05-0.05,0.07-0.11,0.07-0.17
				V35.7L61.1,38.56z"/>
			<path class="st0" d="M65.41,35.97l1.19-1.41h0.7v4.53h-0.52v-3.95c-0.06,0.08-0.18,0.22-0.35,0.42
				c-0.17,0.21-0.29,0.34-0.35,0.41H65.41z"/>
			<path class="st0" d="M67.87,35.97l1.19-1.41h0.7v4.53h-0.52v-3.95c-0.06,0.08-0.18,0.22-0.35,0.42
				c-0.17,0.21-0.29,0.34-0.35,0.41H67.87z"/>
			<path class="st0" d="M70.33,35.97l1.19-1.41h0.7v4.53H71.7v-3.95c-0.06,0.08-0.18,0.22-0.35,0.42c-0.17,0.21-0.29,0.34-0.35,0.41
				H70.33z"/>
			<path class="st0" d="M72.79,35.97l1.19-1.41h0.7v4.53h-0.52v-3.95c-0.06,0.08-0.18,0.22-0.35,0.42
				c-0.17,0.21-0.29,0.34-0.35,0.41H72.79z"/>
			<path class="st0" d="M76.36,34.55h3.05c0.21,0,0.39,0.07,0.54,0.22c0.15,0.15,0.22,0.33,0.22,0.54v3c0,0.21-0.07,0.39-0.22,0.54
				c-0.15,0.15-0.33,0.22-0.54,0.22h-3.05c-0.21,0-0.39-0.07-0.54-0.22c-0.15-0.15-0.22-0.33-0.22-0.54v-3
				c0-0.21,0.07-0.4,0.22-0.54C75.96,34.63,76.15,34.55,76.36,34.55z M79.58,35.07h-3.23c-0.07,0-0.12,0.02-0.17,0.07
				c-0.05,0.05-0.07,0.11-0.07,0.17v2.62L79.58,35.07z M76.18,38.56h3.23c0.07,0,0.12-0.02,0.17-0.07c0.05-0.05,0.07-0.11,0.07-0.17
				V35.7L76.18,38.56z"/>
			<path class="st0" d="M80.49,35.97l1.19-1.41h0.7v4.53h-0.52v-3.95c-0.06,0.08-0.18,0.22-0.35,0.42
				c-0.17,0.21-0.29,0.34-0.35,0.41H80.49z"/>
			<path class="st0" d="M84.06,34.55h3.05c0.21,0,0.39,0.07,0.54,0.22c0.15,0.15,0.22,0.33,0.22,0.54v3c0,0.21-0.07,0.39-0.22,0.54
				c-0.15,0.15-0.33,0.22-0.54,0.22h-3.05c-0.21,0-0.39-0.07-0.54-0.22c-0.15-0.15-0.22-0.33-0.22-0.54v-3
				c0-0.21,0.07-0.4,0.22-0.54C83.67,34.63,83.85,34.55,84.06,34.55z M87.29,35.07h-3.23c-0.07,0-0.12,0.02-0.17,0.07
				c-0.05,0.05-0.07,0.11-0.07,0.17v2.62L87.29,35.07z M83.88,38.56h3.23c0.07,0,0.12-0.02,0.17-0.07c0.05-0.05,0.07-0.11,0.07-0.17
				V35.7L83.88,38.56z"/>
			<path class="st0" d="M88.19,35.97l1.19-1.41h0.7v4.53h-0.52v-3.95c-0.06,0.08-0.18,0.22-0.35,0.42
				c-0.17,0.21-0.29,0.34-0.35,0.41H88.19z"/>
			<path class="st0" d="M91.76,34.55h3.05c0.21,0,0.39,0.07,0.54,0.22c0.15,0.15,0.22,0.33,0.22,0.54v3c0,0.21-0.07,0.39-0.22,0.54
				c-0.15,0.15-0.33,0.22-0.54,0.22h-3.05c-0.21,0-0.39-0.07-0.54-0.22C91.07,38.71,91,38.53,91,38.32v-3c0-0.21,0.07-0.4,0.22-0.54
				C91.37,34.63,91.55,34.55,91.76,34.55z M94.99,35.07h-3.23c-0.07,0-0.12,0.02-0.17,0.07c-0.05,0.05-0.07,0.11-0.07,0.17v2.62
				L94.99,35.07z M91.58,38.56h3.23c0.07,0,0.12-0.02,0.17-0.07s0.07-0.11,0.07-0.17V35.7L91.58,38.56z"/>
			<path class="st0" d="M95.89,35.97l1.19-1.41h0.7v4.53h-0.52v-3.95c-0.06,0.08-0.18,0.22-0.35,0.42
				c-0.17,0.21-0.29,0.34-0.35,0.41H95.89z"/>
			<path class="st0" d="M99.46,34.55h3.05c0.21,0,0.39,0.07,0.54,0.22c0.15,0.15,0.22,0.33,0.22,0.54v3c0,0.21-0.07,0.39-0.22,0.54
				c-0.15,0.15-0.33,0.22-0.54,0.22h-3.05c-0.21,0-0.39-0.07-0.54-0.22c-0.15-0.15-0.22-0.33-0.22-0.54v-3
				c0-0.21,0.07-0.4,0.22-0.54C99.07,34.63,99.25,34.55,99.46,34.55z M102.69,35.07h-3.23c-0.07,0-0.12,0.02-0.17,0.07
				c-0.05,0.05-0.07,0.11-0.07,0.17v2.62L102.69,35.07z M99.28,38.56h3.23c0.07,0,0.12-0.02,0.17-0.07s0.07-0.11,0.07-0.17V35.7
				L99.28,38.56z"/>
			<path class="st0" d="M103.59,35.97l1.19-1.41h0.7v4.53h-0.52v-3.95c-0.06,0.08-0.18,0.22-0.35,0.42
				c-0.17,0.21-0.29,0.34-0.35,0.41H103.59z"/>
			<path class="st0" d="M107.16,34.55h3.05c0.21,0,0.39,0.07,0.54,0.22c0.15,0.15,0.22,0.33,0.22,0.54v3c0,0.21-0.07,0.39-0.22,0.54
				c-0.15,0.15-0.33,0.22-0.54,0.22h-3.05c-0.21,0-0.39-0.07-0.54-0.22c-0.15-0.15-0.22-0.33-0.22-0.54v-3
				c0-0.21,0.07-0.4,0.22-0.54C106.77,34.63,106.95,34.55,107.16,34.55z M110.39,35.07h-3.23c-0.07,0-0.12,0.02-0.17,0.07
				c-0.05,0.05-0.07,0.11-0.07,0.17v2.62L110.39,35.07z M106.98,38.56h3.23c0.07,0,0.12-0.02,0.17-0.07s0.07-0.11,0.07-0.17V35.7
				L106.98,38.56z"/>
			<path class="st0" d="M34.61,43.51l1.19-1.41h0.7v4.53h-0.52v-3.95c-0.06,0.08-0.18,0.22-0.35,0.42
				c-0.17,0.21-0.29,0.34-0.35,0.41H34.61z"/>
			<path class="st0" d="M38.18,42.1h3.05c0.21,0,0.39,0.07,0.54,0.22c0.15,0.15,0.22,0.33,0.22,0.54v3c0,0.21-0.07,0.39-0.22,0.54
				c-0.15,0.15-0.33,0.22-0.54,0.22h-3.05c-0.21,0-0.39-0.07-0.54-0.22c-0.15-0.15-0.22-0.33-0.22-0.54v-3
				c0-0.21,0.07-0.4,0.22-0.54C37.79,42.17,37.97,42.1,38.18,42.1z M41.41,42.62h-3.23c-0.07,0-0.12,0.02-0.17,0.07
				c-0.05,0.05-0.07,0.11-0.07,0.17v2.62L41.41,42.62z M38,46.11h3.23c0.07,0,0.12-0.02,0.17-0.07s0.07-0.11,0.07-0.17v-2.62
				L38,46.11z"/>
			<path class="st0" d="M42.31,43.51l1.19-1.41h0.7v4.53h-0.52v-3.95c-0.06,0.08-0.18,0.22-0.35,0.42
				c-0.17,0.21-0.29,0.34-0.35,0.41H42.31z"/>
			<path class="st0" d="M45.88,42.1h3.05c0.21,0,0.39,0.07,0.54,0.22c0.15,0.15,0.22,0.33,0.22,0.54v3c0,0.21-0.07,0.39-0.22,0.54
				c-0.15,0.15-0.33,0.22-0.54,0.22h-3.05c-0.21,0-0.39-0.07-0.54-0.22c-0.15-0.15-0.22-0.33-0.22-0.54v-3
				c0-0.21,0.07-0.4,0.22-0.54C45.49,42.17,45.67,42.1,45.88,42.1z M49.11,42.62h-3.23c-0.07,0-0.12,0.02-0.17,0.07
				c-0.05,0.05-0.07,0.11-0.07,0.17v2.62L49.11,42.62z M45.7,46.11h3.23c0.07,0,0.12-0.02,0.17-0.07c0.05-0.05,0.07-0.11,0.07-0.17
				v-2.62L45.7,46.11z"/>
			<path class="st0" d="M50.01,43.51l1.19-1.41h0.7v4.53h-0.52v-3.95c-0.06,0.08-0.18,0.22-0.35,0.42
				c-0.17,0.21-0.29,0.34-0.35,0.41H50.01z"/>
			<path class="st0" d="M53.58,42.1h3.05c0.21,0,0.39,0.07,0.54,0.22c0.15,0.15,0.22,0.33,0.22,0.54v3c0,0.21-0.07,0.39-0.22,0.54
				c-0.15,0.15-0.33,0.22-0.54,0.22h-3.05c-0.21,0-0.39-0.07-0.54-0.22c-0.15-0.15-0.22-0.33-0.22-0.54v-3
				c0-0.21,0.07-0.4,0.22-0.54C53.19,42.17,53.37,42.1,53.58,42.1z M56.81,42.62h-3.23c-0.07,0-0.12,0.02-0.17,0.07
				c-0.05,0.05-0.07,0.11-0.07,0.17v2.62L56.81,42.62z M53.4,46.11h3.23c0.07,0,0.12-0.02,0.17-0.07s0.07-0.11,0.07-0.17v-2.62
				L53.4,46.11z"/>
			<path class="st0" d="M57.71,43.51l1.19-1.41h0.7v4.53h-0.52v-3.95c-0.06,0.08-0.18,0.22-0.35,0.42
				c-0.17,0.21-0.29,0.34-0.35,0.41H57.71z"/>
			<path class="st0" d="M60.17,43.51l1.19-1.41h0.7v4.53h-0.52v-3.95c-0.06,0.08-0.18,0.22-0.35,0.42
				c-0.17,0.21-0.29,0.34-0.35,0.41H60.17z"/>
			<path class="st0" d="M63.74,42.1h3.05c0.21,0,0.39,0.07,0.54,0.22c0.15,0.15,0.22,0.33,0.22,0.54v3c0,0.21-0.07,0.39-0.22,0.54
				c-0.15,0.15-0.33,0.22-0.54,0.22h-3.05c-0.21,0-0.39-0.07-0.54-0.22c-0.15-0.15-0.22-0.33-0.22-0.54v-3
				c0-0.21,0.07-0.4,0.22-0.54C63.35,42.17,63.53,42.1,63.74,42.1z M66.97,42.62h-3.23c-0.07,0-0.12,0.02-0.17,0.07
				c-0.05,0.05-0.07,0.11-0.07,0.17v2.62L66.97,42.62z M63.56,46.11h3.23c0.07,0,0.12-0.02,0.17-0.07s0.07-0.11,0.07-0.17v-2.62
				L63.56,46.11z"/>
			<path class="st0" d="M67.87,43.51l1.19-1.41h0.7v4.53h-0.52v-3.95c-0.06,0.08-0.18,0.22-0.35,0.42
				c-0.17,0.21-0.29,0.34-0.35,0.41H67.87z"/>
			<path class="st0" d="M70.33,43.51l1.19-1.41h0.7v4.53H71.7v-3.95c-0.06,0.08-0.18,0.22-0.35,0.42c-0.17,0.21-0.29,0.34-0.35,0.41
				H70.33z"/>
			<path class="st0" d="M72.79,43.51l1.19-1.41h0.7v4.53h-0.52v-3.95c-0.06,0.08-0.18,0.22-0.35,0.42
				c-0.17,0.21-0.29,0.34-0.35,0.41H72.79z"/>
			<path class="st0" d="M75.25,43.51l1.19-1.41h0.7v4.53h-0.52v-3.95c-0.06,0.08-0.18,0.22-0.35,0.42
				c-0.17,0.21-0.29,0.34-0.35,0.41H75.25z"/>
			<path class="st0" d="M78.82,42.1h3.05c0.21,0,0.39,0.07,0.54,0.22c0.15,0.15,0.22,0.33,0.22,0.54v3c0,0.21-0.07,0.39-0.22,0.54
				c-0.15,0.15-0.33,0.22-0.54,0.22h-3.05c-0.21,0-0.39-0.07-0.54-0.22c-0.15-0.15-0.22-0.33-0.22-0.54v-3
				c0-0.21,0.07-0.4,0.22-0.54C78.42,42.17,78.6,42.1,78.82,42.1z M82.04,42.62h-3.23c-0.07,0-0.12,0.02-0.17,0.07
				c-0.05,0.05-0.07,0.11-0.07,0.17v2.62L82.04,42.62z M78.63,46.11h3.23c0.07,0,0.12-0.02,0.17-0.07s0.07-0.11,0.07-0.17v-2.62
				L78.63,46.11z"/>
			<path class="st0" d="M82.95,43.51l1.19-1.41h0.7v4.53h-0.52v-3.95c-0.06,0.08-0.18,0.22-0.35,0.42
				c-0.17,0.21-0.29,0.34-0.35,0.41H82.95z"/>
			<path class="st0" d="M86.52,42.1h3.05c0.21,0,0.39,0.07,0.54,0.22c0.15,0.15,0.22,0.33,0.22,0.54v3c0,0.21-0.07,0.39-0.22,0.54
				c-0.15,0.15-0.33,0.22-0.54,0.22h-3.05c-0.21,0-0.39-0.07-0.54-0.22c-0.15-0.15-0.22-0.33-0.22-0.54v-3
				c0-0.21,0.07-0.4,0.22-0.54C86.12,42.17,86.3,42.1,86.52,42.1z M89.74,42.62h-3.23c-0.07,0-0.12,0.02-0.17,0.07
				c-0.05,0.05-0.07,0.11-0.07,0.17v2.62L89.74,42.62z M86.34,46.11h3.23c0.07,0,0.12-0.02,0.17-0.07s0.07-0.11,0.07-0.17v-2.62
				L86.34,46.11z"/>
			<path class="st0" d="M90.65,43.51l1.19-1.41h0.7v4.53h-0.52v-3.95c-0.06,0.08-0.18,0.22-0.35,0.42
				c-0.17,0.21-0.29,0.34-0.35,0.41H90.65z"/>
			<path class="st0" d="M94.22,42.1h3.05c0.21,0,0.39,0.07,0.54,0.22c0.15,0.15,0.22,0.33,0.22,0.54v3c0,0.21-0.07,0.39-0.22,0.54
				c-0.15,0.15-0.33,0.22-0.54,0.22h-3.05c-0.21,0-0.39-0.07-0.54-0.22c-0.15-0.15-0.22-0.33-0.22-0.54v-3
				c0-0.21,0.07-0.4,0.22-0.54C93.83,42.17,94.01,42.1,94.22,42.1z M97.44,42.62h-3.23c-0.07,0-0.12,0.02-0.17,0.07
				c-0.05,0.05-0.07,0.11-0.07,0.17v2.62L97.44,42.62z M94.04,46.11h3.23c0.07,0,0.12-0.02,0.17-0.07c0.05-0.05,0.07-0.11,0.07-0.17
				v-2.62L94.04,46.11z"/>
			<path class="st0" d="M98.35,43.51l1.19-1.41h0.7v4.53h-0.52v-3.95c-0.06,0.08-0.18,0.22-0.35,0.42
				c-0.17,0.21-0.29,0.34-0.35,0.41H98.35z"/>
			<path class="st0" d="M101.92,42.1h3.05c0.21,0,0.39,0.07,0.54,0.22c0.15,0.15,0.22,0.33,0.22,0.54v3c0,0.21-0.07,0.39-0.22,0.54
				c-0.15,0.15-0.33,0.22-0.54,0.22h-3.05c-0.21,0-0.39-0.07-0.54-0.22c-0.15-0.15-0.22-0.33-0.22-0.54v-3
				c0-0.21,0.07-0.4,0.22-0.54C101.53,42.17,101.71,42.1,101.92,42.1z M105.15,42.62h-3.23c-0.07,0-0.12,0.02-0.17,0.07
				c-0.05,0.05-0.07,0.11-0.07,0.17v2.62L105.15,42.62z M101.74,46.11h3.23c0.07,0,0.12-0.02,0.17-0.07
				c0.05-0.05,0.07-0.11,0.07-0.17v-2.62L101.74,46.11z"/>
			<path class="st0" d="M27.24,51.06l1.19-1.41h0.7v4.53h-0.52v-3.95c-0.06,0.08-0.18,0.22-0.35,0.42
				c-0.17,0.21-0.29,0.34-0.35,0.41H27.24z"/>
			<path class="st0" d="M30.81,49.64h3.05c0.21,0,0.39,0.07,0.54,0.22c0.15,0.15,0.22,0.33,0.22,0.54v3c0,0.21-0.07,0.39-0.22,0.54
				c-0.15,0.15-0.33,0.22-0.54,0.22h-3.05c-0.21,0-0.39-0.07-0.54-0.22c-0.15-0.15-0.22-0.33-0.22-0.54v-3
				c0-0.21,0.07-0.4,0.22-0.54C30.41,49.72,30.59,49.64,30.81,49.64z M34.03,50.16h-3.23c-0.07,0-0.12,0.02-0.17,0.07
				c-0.05,0.05-0.07,0.11-0.07,0.17v2.62L34.03,50.16z M30.62,53.65h3.23c0.07,0,0.12-0.02,0.17-0.07s0.07-0.11,0.07-0.17v-2.62
				L30.62,53.65z"/>
			<path class="st0" d="M34.94,51.06l1.19-1.41h0.7v4.53h-0.52v-3.95c-0.06,0.08-0.18,0.22-0.35,0.42
				c-0.17,0.21-0.29,0.34-0.35,0.41H34.94z"/>
			<path class="st0" d="M25.56,57.18h3.05c0.21,0,0.39,0.07,0.54,0.22c0.15,0.15,0.22,0.33,0.22,0.54v3c0,0.21-0.07,0.39-0.22,0.54
				c-0.15,0.15-0.33,0.22-0.54,0.22h-3.05c-0.21,0-0.39-0.07-0.54-0.22c-0.15-0.15-0.22-0.33-0.22-0.54v-3
				c0-0.21,0.07-0.4,0.22-0.54C25.17,57.26,25.35,57.18,25.56,57.18z M28.79,57.71h-3.23c-0.07,0-0.12,0.02-0.17,0.07
				c-0.05,0.05-0.07,0.11-0.07,0.17v2.62L28.79,57.71z M25.38,61.2h3.23c0.07,0,0.12-0.02,0.17-0.07c0.05-0.05,0.07-0.11,0.07-0.17
				v-2.62L25.38,61.2z"/>
			<path class="st0" d="M29.69,58.6l1.19-1.41h0.7v4.53h-0.52v-3.95c-0.06,0.08-0.18,0.22-0.35,0.42c-0.17,0.21-0.29,0.34-0.35,0.41
				H29.69z"/>
			<path class="st0" d="M33.26,57.18h3.05c0.21,0,0.39,0.07,0.54,0.22c0.15,0.15,0.22,0.33,0.22,0.54v3c0,0.21-0.07,0.39-0.22,0.54
				c-0.15,0.15-0.33,0.22-0.54,0.22h-3.05c-0.21,0-0.39-0.07-0.54-0.22c-0.15-0.15-0.22-0.33-0.22-0.54v-3
				c0-0.21,0.07-0.4,0.22-0.54C32.87,57.26,33.05,57.18,33.26,57.18z M36.49,57.71h-3.23c-0.07,0-0.12,0.02-0.17,0.07
				c-0.05,0.05-0.07,0.11-0.07,0.17v2.62L36.49,57.71z M33.08,61.2h3.23c0.07,0,0.12-0.02,0.17-0.07s0.07-0.11,0.07-0.17v-2.62
				L33.08,61.2z"/>
			<path class="st0" d="M10.16,64.73h3.05c0.21,0,0.39,0.07,0.54,0.22c0.15,0.15,0.22,0.33,0.22,0.54v3c0,0.21-0.07,0.39-0.22,0.54
				c-0.15,0.15-0.33,0.22-0.54,0.22h-3.05c-0.21,0-0.39-0.07-0.54-0.22C9.47,68.88,9.4,68.7,9.4,68.49v-3c0-0.21,0.07-0.4,0.22-0.54
				C9.77,64.8,9.95,64.73,10.16,64.73z M13.39,65.25h-3.23c-0.07,0-0.12,0.02-0.17,0.07c-0.05,0.05-0.07,0.11-0.07,0.17v2.62
				L13.39,65.25z M9.98,68.74h3.23c0.07,0,0.12-0.02,0.17-0.07s0.07-0.11,0.07-0.17v-2.62L9.98,68.74z"/>
			<path class="st0" d="M15.4,64.73h3.05c0.21,0,0.39,0.07,0.54,0.22c0.15,0.15,0.22,0.33,0.22,0.54v3c0,0.21-0.07,0.39-0.22,0.54
				c-0.15,0.15-0.33,0.22-0.54,0.22H15.4c-0.21,0-0.39-0.07-0.54-0.22c-0.15-0.15-0.22-0.33-0.22-0.54v-3c0-0.21,0.07-0.4,0.22-0.54
				C15.01,64.8,15.19,64.73,15.4,64.73z M18.63,65.25H15.4c-0.07,0-0.12,0.02-0.17,0.07c-0.05,0.05-0.07,0.11-0.07,0.17v2.62
				L18.63,65.25z M15.22,68.74h3.23c0.07,0,0.12-0.02,0.17-0.07c0.05-0.05,0.07-0.11,0.07-0.17v-2.62L15.22,68.74z"/>
			<path class="st0" d="M19.53,66.14l1.19-1.41h0.7v4.53H20.9v-3.95c-0.06,0.08-0.18,0.22-0.35,0.42c-0.17,0.21-0.29,0.34-0.35,0.41
				H19.53z"/>
			<path class="st0" d="M23.1,64.73h3.05c0.21,0,0.39,0.07,0.54,0.22c0.15,0.15,0.22,0.33,0.22,0.54v3c0,0.21-0.07,0.39-0.22,0.54
				c-0.15,0.15-0.33,0.22-0.54,0.22H23.1c-0.21,0-0.39-0.07-0.54-0.22c-0.15-0.15-0.22-0.33-0.22-0.54v-3c0-0.21,0.07-0.4,0.22-0.54
				C22.71,64.8,22.89,64.73,23.1,64.73z M26.33,65.25H23.1c-0.07,0-0.12,0.02-0.17,0.07c-0.05,0.05-0.07,0.11-0.07,0.17v2.62
				L26.33,65.25z M22.92,68.74h3.23c0.07,0,0.12-0.02,0.17-0.07s0.07-0.11,0.07-0.17v-2.62L22.92,68.74z"/>
			<path class="st0" d="M27.24,66.14l1.19-1.41h0.7v4.53h-0.52v-3.95c-0.06,0.08-0.18,0.22-0.35,0.42
				c-0.17,0.21-0.29,0.34-0.35,0.41H27.24z"/>
			<path class="st0" d="M30.81,64.73h3.05c0.21,0,0.39,0.07,0.54,0.22c0.15,0.15,0.22,0.33,0.22,0.54v3c0,0.21-0.07,0.39-0.22,0.54
				c-0.15,0.15-0.33,0.22-0.54,0.22h-3.05c-0.21,0-0.39-0.07-0.54-0.22c-0.15-0.15-0.22-0.33-0.22-0.54v-3
				c0-0.21,0.07-0.4,0.22-0.54C30.41,64.8,30.59,64.73,30.81,64.73z M34.03,65.25h-3.23c-0.07,0-0.12,0.02-0.17,0.07
				c-0.05,0.05-0.07,0.11-0.07,0.17v2.62L34.03,65.25z M30.62,68.74h3.23c0.07,0,0.12-0.02,0.17-0.07s0.07-0.11,0.07-0.17v-2.62
				L30.62,68.74z"/>
			<path class="st0" d="M34.94,66.14l1.19-1.41h0.7v4.53h-0.52v-3.95c-0.06,0.08-0.18,0.22-0.35,0.42
				c-0.17,0.21-0.29,0.34-0.35,0.41H34.94z"/>
			<path class="st0" d="M3.8,73.69l1.19-1.41h0.7v4.53H5.18v-3.95C5.12,72.93,5,73.07,4.83,73.27c-0.17,0.21-0.29,0.34-0.35,0.41
				H3.8z"/>
			<path class="st0" d="M7.38,72.27h3.05c0.21,0,0.39,0.07,0.54,0.22c0.15,0.15,0.22,0.33,0.22,0.54v3c0,0.21-0.07,0.39-0.22,0.54
				c-0.15,0.15-0.33,0.22-0.54,0.22H7.38c-0.21,0-0.39-0.07-0.54-0.22c-0.15-0.15-0.22-0.33-0.22-0.54v-3c0-0.21,0.07-0.4,0.22-0.54
				C6.98,72.35,7.16,72.27,7.38,72.27z M10.6,72.79H7.38c-0.07,0-0.12,0.02-0.17,0.07c-0.05,0.05-0.07,0.11-0.07,0.17v2.62
				L10.6,72.79z M7.19,76.28h3.23c0.07,0,0.12-0.02,0.17-0.07c0.05-0.05,0.07-0.11,0.07-0.17v-2.62L7.19,76.28z"/>
			<path class="st0" d="M12.62,72.27h3.05c0.21,0,0.39,0.07,0.54,0.22c0.15,0.15,0.22,0.33,0.22,0.54v3c0,0.21-0.07,0.39-0.22,0.54
				c-0.15,0.15-0.33,0.22-0.54,0.22h-3.05c-0.21,0-0.39-0.07-0.54-0.22c-0.15-0.15-0.22-0.33-0.22-0.54v-3
				c0-0.21,0.07-0.4,0.22-0.54C12.22,72.35,12.4,72.27,12.62,72.27z M15.84,72.79h-3.23c-0.07,0-0.12,0.02-0.17,0.07
				c-0.05,0.05-0.07,0.11-0.07,0.17v2.62L15.84,72.79z M12.44,76.28h3.23c0.07,0,0.12-0.02,0.17-0.07s0.07-0.11,0.07-0.17v-2.62
				L12.44,76.28z"/>
			<path class="st0" d="M17.86,72.27h3.05c0.21,0,0.39,0.07,0.54,0.22c0.15,0.15,0.22,0.33,0.22,0.54v3c0,0.21-0.07,0.39-0.22,0.54
				c-0.15,0.15-0.33,0.22-0.54,0.22h-3.05c-0.21,0-0.39-0.07-0.54-0.22c-0.15-0.15-0.22-0.33-0.22-0.54v-3
				c0-0.21,0.07-0.4,0.22-0.54C17.47,72.35,17.65,72.27,17.86,72.27z M21.09,72.79h-3.23c-0.07,0-0.12,0.02-0.17,0.07
				c-0.05,0.05-0.07,0.11-0.07,0.17v2.62L21.09,72.79z M17.68,76.28h3.23c0.07,0,0.12-0.02,0.17-0.07c0.05-0.05,0.07-0.11,0.07-0.17
				v-2.62L17.68,76.28z"/>
			<path class="st0" d="M21.99,73.69l1.19-1.41h0.7v4.53h-0.52v-3.95c-0.06,0.08-0.18,0.22-0.35,0.42
				c-0.17,0.21-0.29,0.34-0.35,0.41H21.99z"/>
			<path class="st0" d="M25.56,72.27h3.05c0.21,0,0.39,0.07,0.54,0.22c0.15,0.15,0.22,0.33,0.22,0.54v3c0,0.21-0.07,0.39-0.22,0.54
				c-0.15,0.15-0.33,0.22-0.54,0.22h-3.05c-0.21,0-0.39-0.07-0.54-0.22c-0.15-0.15-0.22-0.33-0.22-0.54v-3
				c0-0.21,0.07-0.4,0.22-0.54C25.17,72.35,25.35,72.27,25.56,72.27z M28.79,72.79h-3.23c-0.07,0-0.12,0.02-0.17,0.07
				c-0.05,0.05-0.07,0.11-0.07,0.17v2.62L28.79,72.79z M25.38,76.28h3.23c0.07,0,0.12-0.02,0.17-0.07c0.05-0.05,0.07-0.11,0.07-0.17
				v-2.62L25.38,76.28z"/>
			<path class="st0" d="M29.69,73.69l1.19-1.41h0.7v4.53h-0.52v-3.95c-0.06,0.08-0.18,0.22-0.35,0.42
				c-0.17,0.21-0.29,0.34-0.35,0.41H29.69z"/>
			<path class="st0" d="M33.26,72.27h3.05c0.21,0,0.39,0.07,0.54,0.22c0.15,0.15,0.22,0.33,0.22,0.54v3c0,0.21-0.07,0.39-0.22,0.54
				c-0.15,0.15-0.33,0.22-0.54,0.22h-3.05c-0.21,0-0.39-0.07-0.54-0.22c-0.15-0.15-0.22-0.33-0.22-0.54v-3
				c0-0.21,0.07-0.4,0.22-0.54C32.87,72.35,33.05,72.27,33.26,72.27z M36.49,72.79h-3.23c-0.07,0-0.12,0.02-0.17,0.07
				c-0.05,0.05-0.07,0.11-0.07,0.17v2.62L36.49,72.79z M33.08,76.28h3.23c0.07,0,0.12-0.02,0.17-0.07s0.07-0.11,0.07-0.17v-2.62
				L33.08,76.28z"/>
			<path class="st0" d="M37.39,73.69l1.19-1.41h0.7v4.53h-0.52v-3.95c-0.06,0.08-0.18,0.22-0.35,0.42
				c-0.17,0.21-0.29,0.34-0.35,0.41H37.39z"/>
			<path class="st0" d="M40.97,72.27h3.05c0.21,0,0.39,0.07,0.54,0.22c0.15,0.15,0.22,0.33,0.22,0.54v3c0,0.21-0.07,0.39-0.22,0.54
				c-0.15,0.15-0.33,0.22-0.54,0.22h-3.05c-0.21,0-0.39-0.07-0.54-0.22c-0.15-0.15-0.22-0.33-0.22-0.54v-3
				c0-0.21,0.07-0.4,0.22-0.54C40.57,72.35,40.75,72.27,40.97,72.27z M44.19,72.79h-3.23c-0.07,0-0.12,0.02-0.17,0.07
				c-0.05,0.05-0.07,0.11-0.07,0.17v2.62L44.19,72.79z M40.78,76.28h3.23c0.07,0,0.12-0.02,0.17-0.07c0.05-0.05,0.07-0.11,0.07-0.17
				v-2.62L40.78,76.28z"/>
			<path class="st0" d="M45.1,73.69l1.19-1.41h0.7v4.53h-0.52v-3.95c-0.06,0.08-0.18,0.22-0.35,0.42c-0.17,0.21-0.29,0.34-0.35,0.41
				H45.1z"/>
			<path class="st0" d="M47.55,73.69l1.19-1.41h0.7v4.53h-0.52v-3.95c-0.06,0.08-0.18,0.22-0.35,0.42
				c-0.17,0.21-0.29,0.34-0.35,0.41H47.55z"/>
			<path class="st0" d="M50.01,73.69l1.19-1.41h0.7v4.53h-0.52v-3.95c-0.06,0.08-0.18,0.22-0.35,0.42
				c-0.17,0.21-0.29,0.34-0.35,0.41H50.01z"/>
			<path class="st0" d="M53.58,72.27h3.05c0.21,0,0.39,0.07,0.54,0.22c0.15,0.15,0.22,0.33,0.22,0.54v3c0,0.21-0.07,0.39-0.22,0.54
				c-0.15,0.15-0.33,0.22-0.54,0.22h-3.05c-0.21,0-0.39-0.07-0.54-0.22c-0.15-0.15-0.22-0.33-0.22-0.54v-3
				c0-0.21,0.07-0.4,0.22-0.54C53.19,72.35,53.37,72.27,53.58,72.27z M56.81,72.79h-3.23c-0.07,0-0.12,0.02-0.17,0.07
				c-0.05,0.05-0.07,0.11-0.07,0.17v2.62L56.81,72.79z M53.4,76.28h3.23c0.07,0,0.12-0.02,0.17-0.07s0.07-0.11,0.07-0.17v-2.62
				L53.4,76.28z"/>
			<path class="st0" d="M57.71,73.69l1.19-1.41h0.7v4.53h-0.52v-3.95c-0.06,0.08-0.18,0.22-0.35,0.42
				c-0.17,0.21-0.29,0.34-0.35,0.41H57.71z"/>
			<path class="st0" d="M61.28,72.27h3.05c0.21,0,0.39,0.07,0.54,0.22c0.15,0.15,0.22,0.33,0.22,0.54v3c0,0.21-0.07,0.39-0.22,0.54
				c-0.15,0.15-0.33,0.22-0.54,0.22h-3.05c-0.21,0-0.39-0.07-0.54-0.22c-0.15-0.15-0.22-0.33-0.22-0.54v-3
				c0-0.21,0.07-0.4,0.22-0.54C60.89,72.35,61.07,72.27,61.28,72.27z M64.51,72.79h-3.23c-0.07,0-0.12,0.02-0.17,0.07
				c-0.05,0.05-0.07,0.11-0.07,0.17v2.62L64.51,72.79z M61.1,76.28h3.23c0.07,0,0.12-0.02,0.17-0.07c0.05-0.05,0.07-0.11,0.07-0.17
				v-2.62L61.1,76.28z"/>
			<path class="st0" d="M65.41,73.69l1.19-1.41h0.7v4.53h-0.52v-3.95c-0.06,0.08-0.18,0.22-0.35,0.42
				c-0.17,0.21-0.29,0.34-0.35,0.41H65.41z"/>
			<path class="st0" d="M68.98,72.27h3.05c0.21,0,0.39,0.07,0.54,0.22c0.15,0.15,0.22,0.33,0.22,0.54v3c0,0.21-0.07,0.39-0.22,0.54
				c-0.15,0.15-0.33,0.22-0.54,0.22h-3.05c-0.21,0-0.39-0.07-0.54-0.22c-0.15-0.15-0.22-0.33-0.22-0.54v-3
				c0-0.21,0.07-0.4,0.22-0.54C68.59,72.35,68.77,72.27,68.98,72.27z M72.21,72.79h-3.23c-0.07,0-0.12,0.02-0.17,0.07
				c-0.05,0.05-0.07,0.11-0.07,0.17v2.62L72.21,72.79z M68.8,76.28h3.23c0.07,0,0.12-0.02,0.17-0.07s0.07-0.11,0.07-0.17v-2.62
				L68.8,76.28z"/>
			<path class="st0" d="M73.12,73.69l1.19-1.41h0.7v4.53h-0.52v-3.95c-0.06,0.08-0.18,0.22-0.35,0.42
				c-0.17,0.21-0.29,0.34-0.35,0.41H73.12z"/>
			<path class="st0" d="M75.57,73.69l1.19-1.41h0.7v4.53h-0.52v-3.95c-0.06,0.08-0.18,0.22-0.35,0.42
				c-0.17,0.21-0.29,0.34-0.35,0.41H75.57z"/>
			<path class="st0" d="M79.14,72.27h3.05c0.21,0,0.39,0.07,0.54,0.22c0.15,0.15,0.22,0.33,0.22,0.54v3c0,0.21-0.07,0.39-0.22,0.54
				c-0.15,0.15-0.33,0.22-0.54,0.22h-3.05c-0.21,0-0.39-0.07-0.54-0.22c-0.15-0.15-0.22-0.33-0.22-0.54v-3
				c0-0.21,0.07-0.4,0.22-0.54C78.75,72.35,78.93,72.27,79.14,72.27z M82.37,72.79h-3.23c-0.07,0-0.12,0.02-0.17,0.07
				c-0.05,0.05-0.07,0.11-0.07,0.17v2.62L82.37,72.79z M78.96,76.28h3.23c0.07,0,0.12-0.02,0.17-0.07c0.05-0.05,0.07-0.11,0.07-0.17
				v-2.62L78.96,76.28z"/>
			<path class="st0" d="M83.27,73.69l1.19-1.41h0.7v4.53h-0.52v-3.95c-0.06,0.08-0.18,0.22-0.35,0.42
				c-0.17,0.21-0.29,0.34-0.35,0.41H83.27z"/>
			<path class="st0" d="M85.73,73.69l1.19-1.41h0.7v4.53H87.1v-3.95c-0.06,0.08-0.18,0.22-0.35,0.42c-0.17,0.21-0.29,0.34-0.35,0.41
				H85.73z"/>
			<path class="st0" d="M88.19,73.69l1.19-1.41h0.7v4.53h-0.52v-3.95c-0.06,0.08-0.18,0.22-0.35,0.42
				c-0.17,0.21-0.29,0.34-0.35,0.41H88.19z"/>
			<path class="st0" d="M90.65,73.69l1.19-1.41h0.7v4.53h-0.52v-3.95c-0.06,0.08-0.18,0.22-0.35,0.42
				c-0.17,0.21-0.29,0.34-0.35,0.41H90.65z"/>
			<path class="st0" d="M94.22,72.27h3.05c0.21,0,0.39,0.07,0.54,0.22c0.15,0.15,0.22,0.33,0.22,0.54v3c0,0.21-0.07,0.39-0.22,0.54
				c-0.15,0.15-0.33,0.22-0.54,0.22h-3.05c-0.21,0-0.39-0.07-0.54-0.22c-0.15-0.15-0.22-0.33-0.22-0.54v-3
				c0-0.21,0.07-0.4,0.22-0.54C93.83,72.35,94.01,72.27,94.22,72.27z M97.44,72.79h-3.23c-0.07,0-0.12,0.02-0.17,0.07
				c-0.05,0.05-0.07,0.11-0.07,0.17v2.62L97.44,72.79z M94.04,76.28h3.23c0.07,0,0.12-0.02,0.17-0.07c0.05-0.05,0.07-0.11,0.07-0.17
				v-2.62L94.04,76.28z"/>
			<path class="st0" d="M98.35,73.69l1.19-1.41h0.7v4.53h-0.52v-3.95c-0.06,0.08-0.18,0.22-0.35,0.42
				c-0.17,0.21-0.29,0.34-0.35,0.41H98.35z"/>
			<path class="st0" d="M101.92,72.27h3.05c0.21,0,0.39,0.07,0.54,0.22c0.15,0.15,0.22,0.33,0.22,0.54v3c0,0.21-0.07,0.39-0.22,0.54
				c-0.15,0.15-0.33,0.22-0.54,0.22h-3.05c-0.21,0-0.39-0.07-0.54-0.22c-0.15-0.15-0.22-0.33-0.22-0.54v-3
				c0-0.21,0.07-0.4,0.22-0.54C101.53,72.35,101.71,72.27,101.92,72.27z M105.15,72.79h-3.23c-0.07,0-0.12,0.02-0.17,0.07
				c-0.05,0.05-0.07,0.11-0.07,0.17v2.62L105.15,72.79z M101.74,76.28h3.23c0.07,0,0.12-0.02,0.17-0.07
				c0.05-0.05,0.07-0.11,0.07-0.17v-2.62L101.74,76.28z"/>
			<path class="st0" d="M32.15,81.23l1.19-1.41h0.7v4.53h-0.52V80.4c-0.06,0.08-0.18,0.22-0.35,0.42c-0.17,0.21-0.29,0.34-0.35,0.41
				H32.15z"/>
			<path class="st0" d="M35.72,79.82h3.05c0.21,0,0.39,0.07,0.54,0.22c0.15,0.15,0.22,0.33,0.22,0.54v3c0,0.21-0.07,0.39-0.22,0.54
				c-0.15,0.15-0.33,0.22-0.54,0.22h-3.05c-0.21,0-0.39-0.07-0.54-0.22c-0.15-0.15-0.22-0.33-0.22-0.54v-3
				c0-0.21,0.07-0.4,0.22-0.54C35.33,79.89,35.51,79.82,35.72,79.82z M38.95,80.34h-3.23c-0.07,0-0.12,0.02-0.17,0.07
				c-0.05,0.05-0.07,0.11-0.07,0.17v2.62L38.95,80.34z M35.54,83.83h3.23c0.07,0,0.12-0.02,0.17-0.07c0.05-0.05,0.07-0.11,0.07-0.17
				v-2.62L35.54,83.83z"/>
			<path class="st0" d="M39.85,81.23l1.19-1.41h0.7v4.53h-0.52V80.4c-0.06,0.08-0.18,0.22-0.35,0.42c-0.17,0.21-0.29,0.34-0.35,0.41
				H39.85z"/>
			<path class="st0" d="M43.42,79.82h3.05c0.21,0,0.39,0.07,0.54,0.22c0.15,0.15,0.22,0.33,0.22,0.54v3c0,0.21-0.07,0.39-0.22,0.54
				c-0.15,0.15-0.33,0.22-0.54,0.22h-3.05c-0.21,0-0.39-0.07-0.54-0.22c-0.15-0.15-0.22-0.33-0.22-0.54v-3
				c0-0.21,0.07-0.4,0.22-0.54C43.03,79.89,43.21,79.82,43.42,79.82z M46.65,80.34h-3.23c-0.07,0-0.12,0.02-0.17,0.07
				c-0.05,0.05-0.07,0.11-0.07,0.17v2.62L46.65,80.34z M43.24,83.83h3.23c0.07,0,0.12-0.02,0.17-0.07c0.05-0.05,0.07-0.11,0.07-0.17
				v-2.62L43.24,83.83z"/>
			<path class="st0" d="M47.55,81.23l1.19-1.41h0.7v4.53h-0.52V80.4c-0.06,0.08-0.18,0.22-0.35,0.42c-0.17,0.21-0.29,0.34-0.35,0.41
				H47.55z"/>
			<path class="st0" d="M50.01,81.23l1.19-1.41h0.7v4.53h-0.52V80.4c-0.06,0.08-0.18,0.22-0.35,0.42c-0.17,0.21-0.29,0.34-0.35,0.41
				H50.01z"/>
			<path class="st0" d="M52.47,81.23l1.19-1.41h0.7v4.53h-0.52V80.4c-0.06,0.08-0.18,0.22-0.35,0.42c-0.17,0.21-0.29,0.34-0.35,0.41
				H52.47z"/>
			<path class="st0" d="M56.04,79.82h3.05c0.21,0,0.39,0.07,0.54,0.22c0.15,0.15,0.22,0.33,0.22,0.54v3c0,0.21-0.07,0.39-0.22,0.54
				c-0.15,0.15-0.33,0.22-0.54,0.22h-3.05c-0.21,0-0.39-0.07-0.54-0.22c-0.15-0.15-0.22-0.33-0.22-0.54v-3
				c0-0.21,0.07-0.4,0.22-0.54C55.65,79.89,55.83,79.82,56.04,79.82z M59.27,80.34h-3.23c-0.07,0-0.12,0.02-0.17,0.07
				c-0.05,0.05-0.07,0.11-0.07,0.17v2.62L59.27,80.34z M55.86,83.83h3.23c0.07,0,0.12-0.02,0.17-0.07c0.05-0.05,0.07-0.11,0.07-0.17
				v-2.62L55.86,83.83z"/>
			<path class="st0" d="M60.17,81.23l1.19-1.41h0.7v4.53h-0.52V80.4c-0.06,0.08-0.18,0.22-0.35,0.42c-0.17,0.21-0.29,0.34-0.35,0.41
				H60.17z"/>
			<path class="st0" d="M63.74,79.82h3.05c0.21,0,0.39,0.07,0.54,0.22c0.15,0.15,0.22,0.33,0.22,0.54v3c0,0.21-0.07,0.39-0.22,0.54
				c-0.15,0.15-0.33,0.22-0.54,0.22h-3.05c-0.21,0-0.39-0.07-0.54-0.22c-0.15-0.15-0.22-0.33-0.22-0.54v-3
				c0-0.21,0.07-0.4,0.22-0.54C63.35,79.89,63.53,79.82,63.74,79.82z M66.97,80.34h-3.23c-0.07,0-0.12,0.02-0.17,0.07
				c-0.05,0.05-0.07,0.11-0.07,0.17v2.62L66.97,80.34z M63.56,83.83h3.23c0.07,0,0.12-0.02,0.17-0.07c0.05-0.05,0.07-0.11,0.07-0.17
				v-2.62L63.56,83.83z"/>
			<path class="st0" d="M67.87,81.23l1.19-1.41h0.7v4.53h-0.52V80.4c-0.06,0.08-0.18,0.22-0.35,0.42c-0.17,0.21-0.29,0.34-0.35,0.41
				H67.87z"/>
			<path class="st0" d="M71.44,79.82h3.05c0.21,0,0.39,0.07,0.54,0.22c0.15,0.15,0.22,0.33,0.22,0.54v3c0,0.21-0.07,0.39-0.22,0.54
				c-0.15,0.15-0.33,0.22-0.54,0.22h-3.05c-0.21,0-0.39-0.07-0.54-0.22c-0.15-0.15-0.22-0.33-0.22-0.54v-3
				c0-0.21,0.07-0.4,0.22-0.54C71.05,79.89,71.23,79.82,71.44,79.82z M74.67,80.34h-3.23c-0.07,0-0.12,0.02-0.17,0.07
				c-0.05,0.05-0.07,0.11-0.07,0.17v2.62L74.67,80.34z M71.26,83.83h3.23c0.07,0,0.12-0.02,0.17-0.07c0.05-0.05,0.07-0.11,0.07-0.17
				v-2.62L71.26,83.83z"/>
			<path class="st0" d="M75.57,81.23l1.19-1.41h0.7v4.53h-0.52V80.4c-0.06,0.08-0.18,0.22-0.35,0.42c-0.17,0.21-0.29,0.34-0.35,0.41
				H75.57z"/>
			<path class="st0" d="M78.03,81.23l1.19-1.41h0.7v4.53H79.4V80.4c-0.06,0.08-0.18,0.22-0.35,0.42c-0.17,0.21-0.29,0.34-0.35,0.41
				H78.03z"/>
			<path class="st0" d="M81.6,79.82h3.05c0.21,0,0.39,0.07,0.54,0.22c0.15,0.15,0.22,0.33,0.22,0.54v3c0,0.21-0.07,0.39-0.22,0.54
				c-0.15,0.15-0.33,0.22-0.54,0.22H81.6c-0.21,0-0.39-0.07-0.54-0.22c-0.15-0.15-0.22-0.33-0.22-0.54v-3c0-0.21,0.07-0.4,0.22-0.54
				C81.21,79.89,81.39,79.82,81.6,79.82z M84.83,80.34H81.6c-0.07,0-0.12,0.02-0.17,0.07c-0.05,0.05-0.07,0.11-0.07,0.17v2.62
				L84.83,80.34z M81.42,83.83h3.23c0.07,0,0.12-0.02,0.17-0.07c0.05-0.05,0.07-0.11,0.07-0.17v-2.62L81.42,83.83z"/>
			<path class="st0" d="M85.73,81.23l1.19-1.41h0.7v4.53H87.1V80.4c-0.06,0.08-0.18,0.22-0.35,0.42c-0.17,0.21-0.29,0.34-0.35,0.41
				H85.73z"/>
			<path class="st0" d="M88.19,81.23l1.19-1.41h0.7v4.53h-0.52V80.4c-0.06,0.08-0.18,0.22-0.35,0.42c-0.17,0.21-0.29,0.34-0.35,0.41
				H88.19z"/>
			<path class="st0" d="M90.65,81.23l1.19-1.41h0.7v4.53h-0.52V80.4c-0.06,0.08-0.18,0.22-0.35,0.42c-0.17,0.21-0.29,0.34-0.35,0.41
				H90.65z"/>
			<path class="st0" d="M93.11,81.23l1.19-1.41H95v4.53h-0.52V80.4c-0.06,0.08-0.18,0.22-0.35,0.42c-0.17,0.21-0.29,0.34-0.35,0.41
				H93.11z"/>
			<path class="st0" d="M96.68,79.82h3.05c0.21,0,0.39,0.07,0.54,0.22c0.15,0.15,0.22,0.33,0.22,0.54v3c0,0.21-0.07,0.39-0.22,0.54
				c-0.15,0.15-0.33,0.22-0.54,0.22h-3.05c-0.21,0-0.39-0.07-0.54-0.22c-0.15-0.15-0.22-0.33-0.22-0.54v-3
				c0-0.21,0.07-0.4,0.22-0.54C96.28,79.89,96.46,79.82,96.68,79.82z M99.9,80.34h-3.23c-0.07,0-0.12,0.02-0.17,0.07
				c-0.05,0.05-0.07,0.11-0.07,0.17v2.62L99.9,80.34z M96.49,83.83h3.23c0.07,0,0.12-0.02,0.17-0.07c0.05-0.05,0.07-0.11,0.07-0.17
				v-2.62L96.49,83.83z"/>
			<path class="st0" d="M100.81,81.23l1.19-1.41h0.7v4.53h-0.52V80.4c-0.06,0.08-0.18,0.22-0.35,0.42
				c-0.17,0.21-0.29,0.34-0.35,0.41H100.81z"/>
			<path class="st0" d="M104.38,79.82h3.05c0.21,0,0.39,0.07,0.54,0.22c0.15,0.15,0.22,0.33,0.22,0.54v3c0,0.21-0.07,0.39-0.22,0.54
				c-0.15,0.15-0.33,0.22-0.54,0.22h-3.05c-0.21,0-0.39-0.07-0.54-0.22c-0.15-0.15-0.22-0.33-0.22-0.54v-3
				c0-0.21,0.07-0.4,0.22-0.54C103.98,79.89,104.16,79.82,104.38,79.82z M107.6,80.34h-3.23c-0.07,0-0.12,0.02-0.17,0.07
				c-0.05,0.05-0.07,0.11-0.07,0.17v2.62L107.6,80.34z M104.2,83.83h3.23c0.07,0,0.12-0.02,0.17-0.07c0.05-0.05,0.07-0.11,0.07-0.17
				v-2.62L104.2,83.83z"/>
			<path class="st0" d="M34.61,88.78l1.19-1.41h0.7v4.53h-0.52v-3.95c-0.06,0.08-0.18,0.22-0.35,0.42
				c-0.17,0.21-0.29,0.34-0.35,0.41H34.61z"/>
			<path class="st0" d="M38.18,87.36h3.05c0.21,0,0.39,0.07,0.54,0.22c0.15,0.15,0.22,0.33,0.22,0.54v3c0,0.21-0.07,0.39-0.22,0.54
				c-0.15,0.15-0.33,0.22-0.54,0.22h-3.05c-0.21,0-0.39-0.07-0.54-0.22c-0.15-0.15-0.22-0.33-0.22-0.54v-3
				c0-0.21,0.07-0.4,0.22-0.54C37.79,87.44,37.97,87.36,38.18,87.36z M41.41,87.88h-3.23c-0.07,0-0.12,0.02-0.17,0.07
				c-0.05,0.05-0.07,0.11-0.07,0.17v2.62L41.41,87.88z M38,91.37h3.23c0.07,0,0.12-0.02,0.17-0.07c0.05-0.05,0.07-0.11,0.07-0.17
				v-2.62L38,91.37z"/>
			<path class="st0" d="M42.31,88.78l1.19-1.41h0.7v4.53h-0.52v-3.95c-0.06,0.08-0.18,0.22-0.35,0.42
				c-0.17,0.21-0.29,0.34-0.35,0.41H42.31z"/>
			<path class="st0" d="M58.5,87.36h3.05c0.21,0,0.39,0.07,0.54,0.22c0.15,0.15,0.22,0.33,0.22,0.54v3c0,0.21-0.07,0.39-0.22,0.54
				c-0.15,0.15-0.33,0.22-0.54,0.22H58.5c-0.21,0-0.39-0.07-0.54-0.22c-0.15-0.15-0.22-0.33-0.22-0.54v-3c0-0.21,0.07-0.4,0.22-0.54
				C58.1,87.44,58.28,87.36,58.5,87.36z M61.72,87.88H58.5c-0.07,0-0.12,0.02-0.17,0.07c-0.05,0.05-0.07,0.11-0.07,0.17v2.62
				L61.72,87.88z M58.32,91.37h3.23c0.07,0,0.12-0.02,0.17-0.07c0.05-0.05,0.07-0.11,0.07-0.17v-2.62L58.32,91.37z"/>
			<path class="st0" d="M62.63,88.78l1.19-1.41h0.7v4.53H64v-3.95c-0.06,0.08-0.18,0.22-0.35,0.42c-0.17,0.21-0.29,0.34-0.35,0.41
				H62.63z"/>
			<path class="st0" d="M66.2,87.36h3.05c0.21,0,0.39,0.07,0.54,0.22c0.15,0.15,0.22,0.33,0.22,0.54v3c0,0.21-0.07,0.39-0.22,0.54
				c-0.15,0.15-0.33,0.22-0.54,0.22H66.2c-0.21,0-0.39-0.07-0.54-0.22c-0.15-0.15-0.22-0.33-0.22-0.54v-3c0-0.21,0.07-0.4,0.22-0.54
				C65.81,87.44,65.99,87.36,66.2,87.36z M69.42,87.88H66.2c-0.07,0-0.12,0.02-0.17,0.07c-0.05,0.05-0.07,0.11-0.07,0.17v2.62
				L69.42,87.88z M66.02,91.37h3.23c0.07,0,0.12-0.02,0.17-0.07c0.05-0.05,0.07-0.11,0.07-0.17v-2.62L66.02,91.37z"/>
			<path class="st0" d="M70.33,88.78l1.19-1.41h0.7v4.53H71.7v-3.95c-0.06,0.08-0.18,0.22-0.35,0.42c-0.17,0.21-0.29,0.34-0.35,0.41
				H70.33z"/>
			<path class="st0" d="M73.9,87.36h3.05c0.21,0,0.39,0.07,0.54,0.22c0.15,0.15,0.22,0.33,0.22,0.54v3c0,0.21-0.07,0.39-0.22,0.54
				c-0.15,0.15-0.33,0.22-0.54,0.22H73.9c-0.21,0-0.39-0.07-0.54-0.22c-0.15-0.15-0.22-0.33-0.22-0.54v-3c0-0.21,0.07-0.4,0.22-0.54
				C73.51,87.44,73.69,87.36,73.9,87.36z M77.13,87.88H73.9c-0.07,0-0.12,0.02-0.17,0.07c-0.05,0.05-0.07,0.11-0.07,0.17v2.62
				L77.13,87.88z M73.72,91.37h3.23c0.07,0,0.12-0.02,0.17-0.07c0.05-0.05,0.07-0.11,0.07-0.17v-2.62L73.72,91.37z"/>
			<path class="st0" d="M78.03,88.78l1.19-1.41h0.7v4.53H79.4v-3.95c-0.06,0.08-0.18,0.22-0.35,0.42c-0.17,0.21-0.29,0.34-0.35,0.41
				H78.03z"/>
			<path class="st0" d="M80.49,88.78l1.19-1.41h0.7v4.53h-0.52v-3.95c-0.06,0.08-0.18,0.22-0.35,0.42
				c-0.17,0.21-0.29,0.34-0.35,0.41H80.49z"/>
			<path class="st0" d="M84.06,87.36h3.05c0.21,0,0.39,0.07,0.54,0.22c0.15,0.15,0.22,0.33,0.22,0.54v3c0,0.21-0.07,0.39-0.22,0.54
				c-0.15,0.15-0.33,0.22-0.54,0.22h-3.05c-0.21,0-0.39-0.07-0.54-0.22c-0.15-0.15-0.22-0.33-0.22-0.54v-3
				c0-0.21,0.07-0.4,0.22-0.54C83.67,87.44,83.85,87.36,84.06,87.36z M87.29,87.88h-3.23c-0.07,0-0.12,0.02-0.17,0.07
				c-0.05,0.05-0.07,0.11-0.07,0.17v2.62L87.29,87.88z M83.88,91.37h3.23c0.07,0,0.12-0.02,0.17-0.07c0.05-0.05,0.07-0.11,0.07-0.17
				v-2.62L83.88,91.37z"/>
			<path class="st0" d="M88.19,88.78l1.19-1.41h0.7v4.53h-0.52v-3.95c-0.06,0.08-0.18,0.22-0.35,0.42
				c-0.17,0.21-0.29,0.34-0.35,0.41H88.19z"/>
			<path class="st0" d="M90.65,88.78l1.19-1.41h0.7v4.53h-0.52v-3.95c-0.06,0.08-0.18,0.22-0.35,0.42
				c-0.17,0.21-0.29,0.34-0.35,0.41H90.65z"/>
			<path class="st0" d="M93.11,88.78l1.19-1.41H95v4.53h-0.52v-3.95c-0.06,0.08-0.18,0.22-0.35,0.42c-0.17,0.21-0.29,0.34-0.35,0.41
				H93.11z"/>
			<path class="st0" d="M95.56,88.78l1.19-1.41h0.7v4.53h-0.52v-3.95c-0.06,0.08-0.18,0.22-0.35,0.42
				c-0.17,0.21-0.29,0.34-0.35,0.41H95.56z"/>
			<path class="st0" d="M99.14,87.36h3.05c0.21,0,0.39,0.07,0.54,0.22c0.15,0.15,0.22,0.33,0.22,0.54v3c0,0.21-0.07,0.39-0.22,0.54
				c-0.15,0.15-0.33,0.22-0.54,0.22h-3.05c-0.21,0-0.39-0.07-0.54-0.22c-0.15-0.15-0.22-0.33-0.22-0.54v-3
				c0-0.21,0.07-0.4,0.22-0.54C98.74,87.44,98.92,87.36,99.14,87.36z M102.36,87.88h-3.23c-0.07,0-0.12,0.02-0.17,0.07
				c-0.05,0.05-0.07,0.11-0.07,0.17v2.62L102.36,87.88z M98.95,91.37h3.23c0.07,0,0.12-0.02,0.17-0.07
				c0.05-0.05,0.07-0.11,0.07-0.17v-2.62L98.95,91.37z"/>
			<path class="st0" d="M103.27,88.78l1.19-1.41h0.7v4.53h-0.52v-3.95c-0.06,0.08-0.18,0.22-0.35,0.42
				c-0.17,0.21-0.29,0.34-0.35,0.41H103.27z"/>
			<path class="st0" d="M106.84,87.36h3.05c0.21,0,0.39,0.07,0.54,0.22c0.15,0.15,0.22,0.33,0.22,0.54v3c0,0.21-0.07,0.39-0.22,0.54
				c-0.15,0.15-0.33,0.22-0.54,0.22h-3.05c-0.21,0-0.39-0.07-0.54-0.22c-0.15-0.15-0.22-0.33-0.22-0.54v-3
				c0-0.21,0.07-0.4,0.22-0.54C106.44,87.44,106.62,87.36,106.84,87.36z M110.06,87.88h-3.23c-0.07,0-0.12,0.02-0.17,0.07
				c-0.05,0.05-0.07,0.11-0.07,0.17v2.62L110.06,87.88z M106.65,91.37h3.23c0.07,0,0.12-0.02,0.17-0.07
				c0.05-0.05,0.07-0.11,0.07-0.17v-2.62L106.65,91.37z"/>
			<path class="st0" d="M57.39,96.32l1.19-1.41h0.7v4.53h-0.52v-3.95c-0.06,0.08-0.18,0.22-0.35,0.42
				c-0.17,0.21-0.29,0.34-0.35,0.41H57.39z"/>
			<path class="st0" d="M60.96,94.91h3.05c0.21,0,0.39,0.07,0.54,0.22s0.22,0.33,0.22,0.54v3c0,0.21-0.07,0.39-0.22,0.54
				s-0.33,0.22-0.54,0.22h-3.05c-0.21,0-0.39-0.07-0.54-0.22c-0.15-0.15-0.22-0.33-0.22-0.54v-3c0-0.21,0.07-0.4,0.22-0.54
				C60.56,94.98,60.74,94.91,60.96,94.91z M64.18,95.43h-3.23c-0.07,0-0.12,0.02-0.17,0.07c-0.05,0.05-0.07,0.11-0.07,0.17v2.62
				L64.18,95.43z M60.77,98.92h3.23c0.07,0,0.12-0.02,0.17-0.07c0.05-0.05,0.07-0.11,0.07-0.17v-2.62L60.77,98.92z"/>
			<path class="st0" d="M65.09,96.32l1.19-1.41h0.7v4.53h-0.52v-3.95c-0.06,0.08-0.18,0.22-0.35,0.42
				c-0.17,0.21-0.29,0.34-0.35,0.41H65.09z"/>
			<path class="st0" d="M68.66,94.91h3.05c0.21,0,0.39,0.07,0.54,0.22s0.22,0.33,0.22,0.54v3c0,0.21-0.07,0.39-0.22,0.54
				s-0.33,0.22-0.54,0.22h-3.05c-0.21,0-0.39-0.07-0.54-0.22c-0.15-0.15-0.22-0.33-0.22-0.54v-3c0-0.21,0.07-0.4,0.22-0.54
				C68.26,94.98,68.44,94.91,68.66,94.91z M71.88,95.43h-3.23c-0.07,0-0.12,0.02-0.17,0.07c-0.05,0.05-0.07,0.11-0.07,0.17v2.62
				L71.88,95.43z M68.48,98.92h3.23c0.07,0,0.12-0.02,0.17-0.07c0.05-0.05,0.07-0.11,0.07-0.17v-2.62L68.48,98.92z"/>
			<path class="st0" d="M72.79,96.32l1.19-1.41h0.7v4.53h-0.52v-3.95c-0.06,0.08-0.18,0.22-0.35,0.42
				c-0.17,0.21-0.29,0.34-0.35,0.41H72.79z"/>
			<path class="st0" d="M76.36,94.91h3.05c0.21,0,0.39,0.07,0.54,0.22c0.15,0.15,0.22,0.33,0.22,0.54v3c0,0.21-0.07,0.39-0.22,0.54
				c-0.15,0.15-0.33,0.22-0.54,0.22h-3.05c-0.21,0-0.39-0.07-0.54-0.22c-0.15-0.15-0.22-0.33-0.22-0.54v-3
				c0-0.21,0.07-0.4,0.22-0.54C75.96,94.98,76.15,94.91,76.36,94.91z M79.58,95.43h-3.23c-0.07,0-0.12,0.02-0.17,0.07
				c-0.05,0.05-0.07,0.11-0.07,0.17v2.62L79.58,95.43z M76.18,98.92h3.23c0.07,0,0.12-0.02,0.17-0.07c0.05-0.05,0.07-0.11,0.07-0.17
				v-2.62L76.18,98.92z"/>
			<path class="st0" d="M80.49,96.32l1.19-1.41h0.7v4.53h-0.52v-3.95c-0.06,0.08-0.18,0.22-0.35,0.42
				c-0.17,0.21-0.29,0.34-0.35,0.41H80.49z"/>
			<path class="st0" d="M82.95,96.32l1.19-1.41h0.7v4.53h-0.52v-3.95c-0.06,0.08-0.18,0.22-0.35,0.42
				c-0.17,0.21-0.29,0.34-0.35,0.41H82.95z"/>
			<path class="st0" d="M86.52,94.91h3.05c0.21,0,0.39,0.07,0.54,0.22s0.22,0.33,0.22,0.54v3c0,0.21-0.07,0.39-0.22,0.54
				s-0.33,0.22-0.54,0.22h-3.05c-0.21,0-0.39-0.07-0.54-0.22c-0.15-0.15-0.22-0.33-0.22-0.54v-3c0-0.21,0.07-0.4,0.22-0.54
				C86.12,94.98,86.3,94.91,86.52,94.91z M89.74,95.43h-3.23c-0.07,0-0.12,0.02-0.17,0.07c-0.05,0.05-0.07,0.11-0.07,0.17v2.62
				L89.74,95.43z M86.34,98.92h3.23c0.07,0,0.12-0.02,0.17-0.07c0.05-0.05,0.07-0.11,0.07-0.17v-2.62L86.34,98.92z"/>
			<path class="st0" d="M90.65,96.32l1.19-1.41h0.7v4.53h-0.52v-3.95c-0.06,0.08-0.18,0.22-0.35,0.42
				c-0.17,0.21-0.29,0.34-0.35,0.41H90.65z"/>
			<path class="st0" d="M93.11,96.32l1.19-1.41H95v4.53h-0.52v-3.95c-0.06,0.08-0.18,0.22-0.35,0.42c-0.17,0.21-0.29,0.34-0.35,0.41
				H93.11z"/>
			<path class="st0" d="M95.56,96.32l1.19-1.41h0.7v4.53h-0.52v-3.95c-0.06,0.08-0.18,0.22-0.35,0.42
				c-0.17,0.21-0.29,0.34-0.35,0.41H95.56z"/>
			<path class="st0" d="M98.02,96.32l1.19-1.41h0.7v4.53h-0.52v-3.95c-0.06,0.08-0.18,0.22-0.35,0.42
				c-0.17,0.21-0.29,0.34-0.35,0.41H98.02z"/>
			<path class="st0" d="M63.41,102.45h3.05c0.21,0,0.39,0.07,0.54,0.22c0.15,0.15,0.22,0.33,0.22,0.54v3c0,0.21-0.07,0.39-0.22,0.54
				c-0.15,0.15-0.33,0.22-0.54,0.22h-3.05c-0.21,0-0.39-0.07-0.54-0.22c-0.15-0.15-0.22-0.33-0.22-0.54v-3
				c0-0.21,0.07-0.4,0.22-0.54C63.02,102.52,63.2,102.45,63.41,102.45z M66.64,102.97h-3.23c-0.07,0-0.12,0.02-0.17,0.07
				c-0.05,0.05-0.07,0.11-0.07,0.17v2.62L66.64,102.97z M63.23,106.46h3.23c0.07,0,0.12-0.02,0.17-0.07
				c0.05-0.05,0.07-0.11,0.07-0.17v-2.62L63.23,106.46z"/>
			<path class="st0" d="M67.54,103.86l1.19-1.41h0.7v4.53h-0.52v-3.95c-0.06,0.08-0.18,0.22-0.35,0.42
				c-0.17,0.21-0.29,0.34-0.35,0.42H67.54z"/>
			<path class="st0" d="M71.12,102.45h3.05c0.21,0,0.39,0.07,0.54,0.22c0.15,0.15,0.22,0.33,0.22,0.54v3c0,0.21-0.07,0.39-0.22,0.54
				c-0.15,0.15-0.33,0.22-0.54,0.22h-3.05c-0.21,0-0.39-0.07-0.54-0.22c-0.15-0.15-0.22-0.33-0.22-0.54v-3
				c0-0.21,0.07-0.4,0.22-0.54C70.72,102.52,70.9,102.45,71.12,102.45z M74.34,102.97h-3.23c-0.07,0-0.12,0.02-0.17,0.07
				c-0.05,0.05-0.07,0.11-0.07,0.17v2.62L74.34,102.97z M70.93,106.46h3.23c0.07,0,0.12-0.02,0.17-0.07
				c0.05-0.05,0.07-0.11,0.07-0.17v-2.62L70.93,106.46z"/>
			<path class="st0" d="M75.25,103.86l1.19-1.41h0.7v4.53h-0.52v-3.95c-0.06,0.08-0.18,0.22-0.35,0.42
				c-0.17,0.21-0.29,0.34-0.35,0.42H75.25z"/>
			<path class="st0" d="M78.82,102.45h3.05c0.21,0,0.39,0.07,0.54,0.22c0.15,0.15,0.22,0.33,0.22,0.54v3c0,0.21-0.07,0.39-0.22,0.54
				c-0.15,0.15-0.33,0.22-0.54,0.22h-3.05c-0.21,0-0.39-0.07-0.54-0.22c-0.15-0.15-0.22-0.33-0.22-0.54v-3
				c0-0.21,0.07-0.4,0.22-0.54C78.42,102.52,78.6,102.45,78.82,102.45z M82.04,102.97h-3.23c-0.07,0-0.12,0.02-0.17,0.07
				c-0.05,0.05-0.07,0.11-0.07,0.17v2.62L82.04,102.97z M78.63,106.46h3.23c0.07,0,0.12-0.02,0.17-0.07
				c0.05-0.05,0.07-0.11,0.07-0.17v-2.62L78.63,106.46z"/>
			<path class="st0" d="M82.95,103.86l1.19-1.41h0.7v4.53h-0.52v-3.95c-0.06,0.08-0.18,0.22-0.35,0.42
				c-0.17,0.21-0.29,0.34-0.35,0.42H82.95z"/>
			<path class="st0" d="M85.41,103.86l1.19-1.41h0.7v4.53h-0.52v-3.95c-0.06,0.08-0.18,0.22-0.35,0.42
				c-0.17,0.21-0.29,0.34-0.35,0.42H85.41z"/>
			<path class="st0" d="M88.98,102.45h3.05c0.21,0,0.39,0.07,0.54,0.22c0.15,0.15,0.22,0.33,0.22,0.54v3c0,0.21-0.07,0.39-0.22,0.54
				c-0.15,0.15-0.33,0.22-0.54,0.22h-3.05c-0.21,0-0.39-0.07-0.54-0.22c-0.15-0.15-0.22-0.33-0.22-0.54v-3
				c0-0.21,0.07-0.4,0.22-0.54C88.58,102.52,88.76,102.45,88.98,102.45z M92.2,102.97h-3.23c-0.07,0-0.12,0.02-0.17,0.07
				c-0.05,0.05-0.07,0.11-0.07,0.17v2.62L92.2,102.97z M88.79,106.46h3.23c0.07,0,0.12-0.02,0.17-0.07
				c0.05-0.05,0.07-0.11,0.07-0.17v-2.62L88.79,106.46z"/>
			<path class="st0" d="M93.11,103.86l1.19-1.41H95v4.53h-0.52v-3.95c-0.06,0.08-0.18,0.22-0.35,0.42
				c-0.17,0.21-0.29,0.34-0.35,0.42H93.11z"/>
			<path class="st0" d="M95.56,103.86l1.19-1.41h0.7v4.53h-0.52v-3.95c-0.06,0.08-0.18,0.22-0.35,0.42
				c-0.17,0.21-0.29,0.34-0.35,0.42H95.56z"/>
			<path class="st0" d="M98.02,103.86l1.19-1.41h0.7v4.53h-0.52v-3.95c-0.06,0.08-0.18,0.22-0.35,0.42
				c-0.17,0.21-0.29,0.34-0.35,0.42H98.02z"/>
			<path class="st0" d="M80.49,111.41l1.19-1.41h0.7v4.53h-0.52v-3.95c-0.06,0.08-0.18,0.22-0.35,0.42
				c-0.17,0.21-0.29,0.34-0.35,0.42H80.49z"/>
			<path class="st0" d="M84.06,109.99h3.05c0.21,0,0.39,0.07,0.54,0.22c0.15,0.15,0.22,0.33,0.22,0.54v3c0,0.21-0.07,0.39-0.22,0.54
				c-0.15,0.15-0.33,0.22-0.54,0.22h-3.05c-0.21,0-0.39-0.07-0.54-0.22c-0.15-0.15-0.22-0.33-0.22-0.54v-3
				c0-0.21,0.07-0.4,0.22-0.54C83.67,110.07,83.85,109.99,84.06,109.99z M87.29,110.51h-3.23c-0.07,0-0.12,0.02-0.17,0.07
				c-0.05,0.05-0.07,0.11-0.07,0.17v2.62L87.29,110.51z M83.88,114h3.23c0.07,0,0.12-0.02,0.17-0.07c0.05-0.05,0.07-0.11,0.07-0.17
				v-2.62L83.88,114z"/>
			<path class="st0" d="M88.19,111.41l1.19-1.41h0.7v4.53h-0.52v-3.95c-0.06,0.08-0.18,0.22-0.35,0.42
				c-0.17,0.21-0.29,0.34-0.35,0.42H88.19z"/>
			<path class="st0" d="M90.65,111.41l1.19-1.41h0.7v4.53h-0.52v-3.95c-0.06,0.08-0.18,0.22-0.35,0.42
				c-0.17,0.21-0.29,0.34-0.35,0.42H90.65z"/>
			<path class="st0" d="M94.22,109.99h3.05c0.21,0,0.39,0.07,0.54,0.22s0.22,0.33,0.22,0.54v3c0,0.21-0.07,0.39-0.22,0.54
				s-0.33,0.22-0.54,0.22h-3.05c-0.21,0-0.39-0.07-0.54-0.22c-0.15-0.15-0.22-0.33-0.22-0.54v-3c0-0.21,0.07-0.4,0.22-0.54
				C93.83,110.07,94.01,109.99,94.22,109.99z M97.44,110.51h-3.23c-0.07,0-0.12,0.02-0.17,0.07c-0.05,0.05-0.07,0.11-0.07,0.17v2.62
				L97.44,110.51z M94.04,114h3.23c0.07,0,0.12-0.02,0.17-0.07c0.05-0.05,0.07-0.11,0.07-0.17v-2.62L94.04,114z"/>
			<path class="st0" d="M98.35,111.41l1.19-1.41h0.7v4.53h-0.52v-3.95c-0.06,0.08-0.18,0.22-0.35,0.42
				c-0.17,0.21-0.29,0.34-0.35,0.42H98.35z"/>
			<path class="st0" d="M100.81,111.41l1.19-1.41h0.7v4.53h-0.52v-3.95c-0.06,0.08-0.18,0.22-0.35,0.42
				c-0.17,0.21-0.29,0.34-0.35,0.42H100.81z"/>
			<path class="st0" d="M103.27,111.41l1.19-1.41h0.7v4.53h-0.52v-3.95c-0.06,0.08-0.18,0.22-0.35,0.42
				c-0.17,0.21-0.29,0.34-0.35,0.42H103.27z"/>
			<path class="st0" d="M105.72,111.41l1.19-1.41h0.7v4.53h-0.52v-3.95c-0.06,0.08-0.18,0.22-0.35,0.42
				c-0.17,0.21-0.29,0.34-0.35,0.42H105.72z"/>
			<path class="st0" d="M100.81,118.95l1.19-1.41h0.7v4.53h-0.52v-3.95c-0.06,0.08-0.18,0.22-0.35,0.42
				c-0.17,0.21-0.29,0.34-0.35,0.42H100.81z"/>
			<path class="st0" d="M103.27,118.95l1.19-1.41h0.7v4.53h-0.52v-3.95c-0.06,0.08-0.18,0.22-0.35,0.42
				c-0.17,0.21-0.29,0.34-0.35,0.42H103.27z"/>
			<path class="st0" d="M105.72,118.95l1.19-1.41h0.7v4.53h-0.52v-3.95c-0.06,0.08-0.18,0.22-0.35,0.42
				c-0.17,0.21-0.29,0.34-0.35,0.42H105.72z"/>
			<path class="st0" d="M108.18,118.95l1.19-1.41h0.7v4.53h-0.52v-3.95c-0.06,0.08-0.18,0.22-0.35,0.42
				c-0.17,0.21-0.29,0.34-0.35,0.42H108.18z"/>
		</g>
	</g>
	<g>
		<path class="st6" d="M161.84,45.52c0.33,0,0.5,0.17,0.5,0.5v1.45c0,0.33-0.17,0.5-0.5,0.5h-9.65c-5.52,0-8.64,0.95-10.6,3.9
			c-1.95,2.96-2.45,6.97-2.45,14.34c0,7.36,0.5,11.32,2.45,14.28c1.95,2.96,5.08,3.91,10.6,3.91h9.65c0.33,0,0.5,0.17,0.5,0.5v1.45
			c0,0.34-0.17,0.5-0.5,0.5c-2.34,0.17-5.58,0.28-9.65,0.28c-6.69,0-10.49-1.11-12.94-4.46c-2.46-3.4-3.18-8.14-3.18-16.46
			c0-6.69,0.5-10.88,1.84-14.28c2.29-5.07,6.36-6.53,14.28-6.69C156.26,45.24,159.49,45.35,161.84,45.52z"/>
		<path class="st6" d="M194.41,47.98c1.28,0.95,2.23,2.23,2.9,3.96c1.39,3.35,1.9,7.59,1.9,14.34c0,6.75-0.56,10.93-1.9,14.34
			c-1.95,4.91-6.47,6.53-14.22,6.53c-6.69,0-10.49-1.06-12.94-4.41c-2.45-3.35-3.12-8.03-3.12-16.46c0-8.48,0.67-13.16,3.12-16.51
			c2.46-3.4,6.25-4.52,12.94-4.52C188.45,45.24,191.9,46.14,194.41,47.98z M172.49,80.61c2.01,2.9,5.02,3.79,10.6,3.79
			c5.58,0,8.59-0.89,10.54-3.79c2.01-2.95,2.45-6.92,2.45-14.34c0-5.97-0.34-9.54-1.45-12.49c-1.73-4.46-4.97-5.63-11.55-5.8
			c-4.46,0-7.25,0.78-9.26,2.34c-1,0.78-1.78,1.95-2.34,3.46c-1.06,2.96-1.4,6.53-1.4,12.49C170.09,73.69,170.54,77.65,172.49,80.61
			z"/>
		<path class="st6" d="M239.44,45.52c0.34,0,0.5,0.17,0.5,0.5v40.33c0,0.34-0.17,0.5-0.5,0.5h-2.17c-0.5,0-0.95-0.22-1.28-0.67
			L211.1,49.43v36.93c0,0.34-0.17,0.5-0.56,0.5h-2.01c-0.39,0-0.56-0.17-0.56-0.5V46.02c0-0.33,0.17-0.5,0.56-0.5h2.34
			c0.95,0,1.23,0.11,1.84,0.95l24.15,35.64V46.02c0-0.33,0.17-0.5,0.5-0.5H239.44z"/>
		<path class="st6" d="M274.58,45.52c0.33,0,0.5,0.17,0.5,0.5v1.45c0,0.33-0.17,0.5-0.56,0.5h-9.71c-5.52,0-8.64,0.95-10.6,3.9
			c-1.95,2.96-2.45,6.97-2.45,14.34c0,7.36,0.5,11.32,2.45,14.28c1.95,2.96,5.08,3.91,10.6,3.91h9.71V67.28c0-0.33,0.17-0.5,0.5-0.5
			h1.95c0.33,0,0.5,0.17,0.5,0.5v18.19c0,0.28-0.06,0.44-0.22,0.61c-1.23,0.72-5.35,1.06-12.44,1.06c-5.35,0-8.81-0.89-11.32-2.68
			c-1.28-0.95-2.23-2.23-2.96-3.96c-1.34-3.4-1.84-7.58-1.84-14.28c0-6.69,0.5-10.88,1.84-14.28c2.29-5.07,6.36-6.53,14.28-6.69
			C269,45.24,272.24,45.35,274.58,45.52z"/>
		<path class="st6" d="M311.9,47.98c1.28,0.95,2.23,2.23,2.9,3.96c1.39,3.35,1.9,7.59,1.9,14.34c0,6.75-0.56,10.93-1.9,14.34
			c-1.95,4.91-6.47,6.53-14.22,6.53c-6.69,0-10.49-1.06-12.94-4.41c-2.45-3.35-3.12-8.03-3.12-16.46c0-8.48,0.67-13.16,3.12-16.51
			c2.46-3.4,6.25-4.52,12.94-4.52C305.93,45.24,309.39,46.14,311.9,47.98z M289.98,80.61c2.01,2.9,5.02,3.79,10.6,3.79
			c5.58,0,8.59-0.89,10.54-3.79c2.01-2.95,2.45-6.92,2.45-14.34c0-5.97-0.34-9.54-1.45-12.49c-1.73-4.46-4.97-5.63-11.55-5.8
			c-4.46,0-7.25,0.78-9.26,2.34c-1,0.78-1.79,1.95-2.34,3.46c-1.06,2.96-1.4,6.53-1.4,12.49C287.58,73.69,288.03,77.65,289.98,80.61
			z"/>
		<path class="st6" d="M368.42,43.65c0.33,0,0.5,0.17,0.5,0.5v1.45c0,0.33-0.17,0.5-0.5,0.5h-9.65c-5.52,0-8.64,0.95-10.6,3.9
			c-1.95,2.96-2.45,6.97-2.45,14.34c0,7.36,0.5,11.32,2.45,14.28c1.95,2.96,5.08,3.91,10.6,3.91h9.65c0.33,0,0.5,0.17,0.5,0.5v1.45
			c0,0.34-0.17,0.5-0.5,0.5c-2.34,0.17-5.58,0.28-9.65,0.28c-6.69,0-10.49-1.11-12.94-4.46c-2.46-3.4-3.18-8.14-3.18-16.46
			c0-6.69,0.5-10.88,1.84-14.28c2.29-5.07,6.36-6.53,14.28-6.69C362.84,43.37,366.07,43.48,368.42,43.65z"/>
		<path class="st6" d="M400.99,46.1c1.28,0.95,2.23,2.23,2.9,3.96c1.39,3.35,1.9,7.59,1.9,14.34c0,6.75-0.56,10.93-1.9,14.34
			c-1.95,4.91-6.47,6.52-14.22,6.52c-6.69,0-10.49-1.06-12.94-4.41c-2.45-3.35-3.12-8.03-3.12-16.46c0-8.48,0.67-13.16,3.12-16.51
			c2.46-3.4,6.25-4.52,12.94-4.52C395.02,43.37,398.48,44.26,400.99,46.1z M379.07,78.74c2.01,2.9,5.02,3.79,10.6,3.79
			c5.58,0,8.59-0.89,10.54-3.79c2.01-2.96,2.45-6.92,2.45-14.34c0-5.97-0.34-9.54-1.45-12.49c-1.73-4.46-4.97-5.63-11.55-5.8
			c-4.46,0-7.25,0.78-9.26,2.34c-1,0.78-1.78,1.95-2.34,3.46c-1.06,2.96-1.4,6.53-1.4,12.49C376.67,71.82,377.12,75.78,379.07,78.74
			z"/>
		<path class="st6" d="M443,48c2.29,3.07,3.46,8.48,3.46,16.29c0,7.86-1.17,13.33-3.46,16.4c-2.29,3.07-6.58,4.57-12.83,4.57
			c-7.2,0-12.22-0.06-15.06-0.22c-0.39,0-0.56-0.17-0.56-0.5V44.09c0-0.33,0.17-0.5,0.56-0.5c2.85-0.17,7.87-0.22,15.06-0.22
			C436.42,43.37,440.71,44.93,443,48z M417.68,46.1v36.42h12.49c5.07,0,8.59-1.34,10.43-3.96c1.84-2.62,2.79-7.42,2.79-14.28
			c0-6.8-0.95-11.55-2.9-14.17c-1.9-2.68-5.47-4.01-10.71-4.01H417.68z"/>
		<path class="st6" d="M480.38,43.65c0.34,0,0.5,0.17,0.5,0.5v1.73c0,0.34-0.17,0.5-0.5,0.5h-22.14v17.4h20.08
			c0.33,0,0.5,0.17,0.5,0.56v1.73c0,0.34-0.17,0.5-0.5,0.5h-20.08v15.67h22.14c0.34,0,0.5,0.17,0.5,0.5v1.73
			c0,0.34-0.17,0.5-0.5,0.5h-24.43c-0.56,0-0.84-0.28-0.84-0.78V44.48c0-0.56,0.28-0.84,0.84-0.84H480.38z"/>
		<path class="st6" d="M504.7,43.54c2.96,0.17,6.02,0.78,7.53,1.9c2.57,1.84,3.68,4.91,3.68,10.88c0,4.52-0.67,7.7-2.06,9.43
			c-1.4,1.73-3.91,2.73-7.53,3.12l9.76,15.45c0.28,0.45,0.17,0.67-0.39,0.67h-1.9c-0.5,0-0.95-0.22-1.28-0.72l-9.59-15.12h-10.93
			v15.34c0,0.34-0.17,0.5-0.56,0.5h-2.01c-0.39,0-0.56-0.17-0.56-0.5V44.09c0-0.33,0.17-0.5,0.56-0.5c2.85-0.17,6.03-0.22,9.6-0.22
			C501.36,43.37,503.25,43.42,504.7,43.54z M491.98,46.1v20.25h6.86c1.79,0,3.18,0,4.18-0.06c2.07-0.06,4.74-0.34,5.91-0.84
			c2.85-1.17,3.85-3.68,3.91-9.09c0-4.8-0.89-7.2-2.9-8.7c-0.61-0.44-1.51-0.78-2.68-1c-2.4-0.45-4.41-0.56-8.42-0.56H491.98z"/>
		<path class="st6" d="M547.04,44.2v1.4c0,0.33-0.17,0.5-0.45,0.5h-12.1c-6.19,0-9.04,1.9-9.04,6.19v0.72c0,3.57,0.95,5.3,4.91,6.92
			l13.05,5.58c3.85,1.73,5.8,4.85,5.8,9.37v1.51c0,3.35-1.34,5.74-2.9,6.92c-0.72,0.56-1.78,1-3.18,1.34
			c-1.39,0.28-2.57,0.45-3.51,0.5c-0.95,0.06-2.29,0.11-3.96,0.11c-5.64,0-10.15-0.11-13.5-0.39c-0.28,0-0.45-0.17-0.45-0.5v-1.39
			c0-0.28,0.17-0.45,0.5-0.45h14.17c2.29,0,3.74-0.06,5.58-0.5c2.57-0.72,4.18-2.23,4.18-5.69v-1.23c0-3.46-1.51-5.85-4.52-7.25
			l-13.5-5.63c-4.69-1.95-5.8-4.52-5.8-8.92v-1.06c0-3.35,1.11-5.63,3.29-6.92c2.18-1.28,5.41-1.95,9.65-1.95s7.98,0.11,11.27,0.39
			C546.88,43.76,547.04,43.93,547.04,44.2z"/>
	</g>
	<g>
		<rect x="125.63" y="39.08" class="st0" width="0.98" height="53.94"/>
	</g>
</g>
</svg>
